<?xml version="1.0" encoding="utf-8"?>
<!-- Generator: Adobe Illustrator 21.0.0, SVG Export Plug-In . SVG Version: 6.00 Build 0)  -->
<svg version="1.1" id="Camada_1" xmlns="http://www.w3.org/2000/svg" xmlns:xlink="http://www.w3.org/1999/xlink" x="0px" y="0px"
	 viewBox="0 0 100 100" style="enable-background:new 0 0 100 100;" xml:space="preserve">
<style type="text/css">
	.st0{fill:#FFFFFF;}
</style>
<g>
	<path class="st0" d="M79.8,46.1c-3.1,0-5.9,0-8.8,0c0-4.4,0-8.8,0-13.5c-7.4,0-14.7,0-22.2,0c0-7.5,0-14.7,0-22.1
		c-10.5,0-20.7,0-31.1,0c0,23.6,0,47.1,0,70.9c8.9,0,17.9,0,26.7,0c0.9,3.1,1.8,6,2.7,9.1c-4.7,0-9.3,0-13.8,0
		c-4.9,0-9.7-0.1-14.6,0c-5.6,0.1-10.1-3.7-10-10c0.2-23.1,0.2-46.2,0-69.2c-0.1-6.3,4.5-10,10-10c10.9,0.1,21.8,0,32.7,0.1
		c1,0,2.2,0.5,2.9,1.2c8.2,8.1,16.3,16.2,24.4,24.3c0.5,0.5,1.1,1.2,1.1,1.9C79.8,34.6,79.8,40.3,79.8,46.1z"/>
	<path class="st0" d="M75.1,56c-11.5,0-20.9,9.3-20.9,20.9s9.3,20.9,20.9,20.9S96,88.4,96,76.9S86.7,56,75.1,56z M73.2,90
		c-4.2-4.1-8.5-8.3-12.9-12.6c2.1-2,4.1-3.9,6.4-6.1c1.9,2.1,4,4.4,6,6.6c4-4,7.7-7.7,11.4-11.5c2.3,2.4,4.3,4.5,6.2,6.5
		C84.7,78.5,78.9,84.3,73.2,90z"/>
</g>
</svg>
