<?xml version="1.0" encoding="utf-8"?>
<!-- Generator: Adobe Illustrator 21.0.0, SVG Export Plug-In . SVG Version: 6.00 Build 0)  -->
<svg version="1.1" id="Camada_1" xmlns="http://www.w3.org/2000/svg" xmlns:xlink="http://www.w3.org/1999/xlink" x="0px" y="0px"
	 viewBox="0 0 100 100" style="enable-background:new 0 0 100 100;" xml:space="preserve">
<style type="text/css">
	.st0{fill:#FFFFFF;}
</style>
<g>
	<path class="st0" d="M4.8,50C5.3,24.8,24.6,5,49.9,5c25.5,0,45.2,20,45,45.1c-0.1,25.7-20.2,45-45.1,44.9
		C24.5,94.9,5.3,75.1,4.8,50z M88.2,49.1C87.1,25.9,69,11.2,49,11.8c-23,0.7-38,18.9-37.3,39.1c0.7,23,18.9,38,39.1,37.3
		C74,87.5,88.4,69.1,88.2,49.1z"/>
	<path class="st0" d="M45.1,73.5c-4.9-0.9-8.6-3.5-10.3-8.4c-0.3-0.8-0.5-1.9-0.1-2.4c0.7-1,1.8-2.2,2.8-2.4c1-0.1,2.6,0.8,3.2,1.7
		c1.1,1.8,1.8,4.2,4.1,4.4c3.3,0.3,6.8,0.4,9.9-0.4c3.2-0.8,4.5-4,4.1-7.5c-0.3-3-2.5-5.5-5.6-6.1c-2.3-0.4-4.6-0.3-6.9-0.4
		C36.8,51.7,31.1,40.9,36,32.9c2.1-3.5,5.3-5.3,9.2-6.2c0.4-2.5-0.3-5.6,3.6-5.9c2.2-0.1,3,1.2,3.6,5.8c3.4,0.5,6.4,1.8,8.5,4.7
		c0.8,1.2,1.6,2.5,2,3.9c0.7,2-0.2,3.7-1.9,4.3c-1.9,0.7-3.6,0-4.4-2.1c-1.2-3.1-3.5-4.5-6.7-4.3c-1.1,0-2.3,0-3.4,0.1
		c-3.2,0.3-5.5,3-5.5,6.4c0.1,3.3,2.4,5.6,5.7,5.9c3.1,0.2,6.2,0.2,9.2,0.9c5,1.1,10.5,7,9.7,15C65,67,60,72.3,53.9,73.3
		c-0.5,0.1-1.1,0.2-1.6,0.4c-0.5,4.3-1.4,5.6-3.4,5.7C46.7,79.4,45.9,78.1,45.1,73.5z"/>
</g>
</svg>
