<svg width="100" height="100" viewBox="0 0 100 100" fill="none" xmlns="http://www.w3.org/2000/svg">
<path d="M97 35.6C96.8 36.1 96.5 36.5 96.3 37C95 40.5 92.2 42.1001 88.7 42.4001C85.2 42.6001 82.6 41 80.9 38C80.4 37.1 79.9 36.7001 78.9 36.7001C77.3 36.8001 75.7 36.7001 73.7 36.7001C79.2 42.5 81.9 49.2 82.5 56.8C85.5 56.8 88.3 56.8 91.2 56.8C91.2 64.5 91.2 72.1 91.2 79.7C83.6 79.7 76.1 79.7 68.4 79.7C68.4 72.1 68.4 64.6 68.4 56.8C71.1 56.8 73.7 56.8 76.4 56.8C76.7 50.1 71.3 38.2 62.6 37.1C62.6 39.7 62.6 42.4 62.6 45.1C54.9 45.1 47.4 45.1 39.6 45.1C39.6 42.4 39.6 39.8 39.6 37.1C31.6 38 25.8 48.5 25.5 56.7001C28.2 56.7001 30.8 56.7001 33.6 56.7001C33.6 64.4001 33.6 72 33.6 79.7C26.1 79.7 18.5 79.7 10.8 79.7C10.8 72.1 10.8 64.6001 10.8 56.9001C13.6 56.9001 16.4 56.9001 19.4 56.9001C20.2 49.3001 22.7 42.5 28.3 36.7001C26 36.7001 24.1 36.6 22.2 36.8C21.8 36.8 21.4 37.5 21.1 38C18 43.2001 11 44 7 39.3C6.1 38.2 5.6 36.8 5 35.6C5 34.4 5 33.2 5 32C5.1 31.8 5.3 31.7 5.4 31.4C6.5 27.6 9.2 25.6001 12.9 25.2001C16.7 24.8001 19.6 26.6 21.4 30C21.6 30.4 22.4 30.8 22.9 30.8C26.1 30.9 29.2 30.8 32.4 30.8C34.7 30.8 37 30.8 39.5 30.8C39.5 27.8 39.5 25 39.5 22.3C47.2 22.3 54.7 22.3 62.5 22.3C62.5 25.2 62.5 27.9 62.5 30.8C68.3 30.8 73.8 30.8001 79.4 30.7001C79.9 30.7001 80.5 30 80.8 29.5C82.6 26.5 85.2 24.9 88.6 25.1C92.1 25.3001 94.9 27 96.2 30.5C96.4 31 96.7 31.4 96.9 31.9C97 33.2 97 34.4 97 35.6ZM56.7 28.1C52.8 28.1 49.1 28.1 45.4 28.1C45.4 32 45.4 35.7001 45.4 39.4001C49.2 39.4001 52.9 39.4001 56.7 39.4001C56.7 35.6001 56.7 31.9001 56.7 28.1ZM16.6 62.6C16.6 66.5 16.6 70.2001 16.6 73.9001C20.5 73.9001 24.2 73.9001 27.9 73.9001C27.9 70.1001 27.9 66.4 27.9 62.6C24.1 62.6 20.4 62.6 16.6 62.6ZM85.4 73.9001C85.4 70 85.4 66.3 85.4 62.6C81.5 62.6 77.8 62.6 74.1 62.6C74.1 66.4 74.1 70.1001 74.1 73.9001C77.9 73.9001 81.6 73.9001 85.4 73.9001ZM16.5 33.8C16.5 32.1 15.4 30.9 13.8 30.9C12.1 30.8 10.8 32 10.8 33.8C10.8 35.4 12 36.6 13.6 36.6C15.2 36.6 16.4 35.5 16.5 33.8ZM91.2 33.8C91.2 32.1 90.1 30.9 88.5 30.9C86.8 30.8 85.5 32 85.5 33.8C85.5 35.4 86.7 36.6 88.3 36.6C90 36.6 91.2 35.5 91.2 33.8Z" fill="#DB2A6C"/>
</svg>
