<?xml version="1.0" encoding="utf-8"?>
<!-- Generator: Adobe Illustrator 21.0.0, SVG Export Plug-In . SVG Version: 6.00 Build 0)  -->
<svg version="1.1" id="Camada_1" xmlns="http://www.w3.org/2000/svg" xmlns:xlink="http://www.w3.org/1999/xlink" x="0px" y="0px"
	 viewBox="0 0 2000 1000" style="enable-background:new 0 0 2000 1000;" xml:space="preserve">
<style type="text/css">
	.st0{fill:#f1f1f1;}
</style>
<g>
	<g id="logo">
		<polygon class="st0" points="350,111.3 49.8,634.9 299.9,554.5 257,904.7 555.4,388.3 301.7,465.1 		"/>
	</g>
	<g id="flash">
		<path class="st0" d="M830,283.2c24.8,0,53.7,3.1,86.7,9.3v432.2h-53.9v-392c-14.9-0.8-25.8-1.2-32.8-1.2
			c-27.7,0-48.2,5.8-61.6,17.3c-13.4,11.6-20.1,30.6-20.1,57v9.3h64.4v52h-64.4v257.6h-53.9V467.1h-49.5v-52h49.5v-9.3
			C694.4,324.1,739.6,283.2,830,283.2z"/>
		<path class="st0" d="M1255.4,415.1h53.9v309.6h-53.9v-53.3c-26.8,40.9-65.8,61.3-117,61.3c-43.3,0-80.3-15.8-110.8-47.4
			c-30.6-31.6-45.8-70.1-45.8-115.5c0-45.4,15.3-83.9,45.8-115.5c30.5-31.6,67.5-47.4,110.8-47.4c51.2,0,90.2,20.4,117,61.3V415.1z
			 M1145.2,680.8c31.4,0,57.6-10.6,78.6-31.9c21.1-21.3,31.6-47.6,31.6-79c0-31.4-10.5-57.7-31.6-79c-21.1-21.3-47.3-31.9-78.6-31.9
			c-31,0-57,10.6-78,31.9c-21.1,21.3-31.6,47.6-31.6,79c0,31.4,10.5,57.7,31.6,79C1088.2,670.2,1114.2,680.8,1145.2,680.8z"/>
		<path class="st0" d="M1436.8,497.8c0,11.7,6.1,21.1,18.2,28.2c12.2,7.1,26.6,13.1,43.5,18c16.8,4.9,33.7,9.9,50.8,14.9
			c17,5,31.4,14.4,43.2,28.1s17.7,31.4,17.7,52.9c0,28.1-10.8,50.6-32.5,67.5c-21.7,16.9-49.4,25.4-83.3,25.4
			c-30.1,0-55.9-6.6-77.4-19.8c-21.5-13.2-36.7-30.7-45.8-52.6l46.4-26.6c5,14.9,14.2,26.6,27.9,35.3c13.6,8.7,29.9,13,48.9,13
			c17.7,0,32.4-3.4,44-10.2c11.6-6.8,17.3-17.4,17.3-31.8c0-11.9-6-21.5-18-28.7c-12-7.2-26.4-13.3-43.2-18.4
			c-16.8-5.1-33.7-10.1-50.8-15.2c-17-5.1-31.5-14.3-43.5-27.5c-12-13.2-18-30.1-18-50.8c0-26.8,10.4-48.9,31.3-66.3
			c20.8-17.3,47-26,78.3-26c25.2,0,47.6,5.7,67.2,17c19.6,11.4,34.4,27.1,44.3,47.4l-45.2,25.4c-11.1-26.4-33.2-39.6-66.3-39.6
			c-15.3,0-28.3,3.5-39,10.6C1442.2,474.9,1436.8,484.9,1436.8,497.8z"/>
		<path class="st0" d="M1825.1,407.1c36.3,0,65.4,11.5,87.3,34.4c21.9,22.9,32.8,54,32.8,93.2v190.1h-53.9v-187
			c0-25.2-6.8-44.7-20.4-58.5c-13.6-13.8-32.4-20.7-56.3-20.7c-26.8,0-48.5,8.4-65,25.1c-16.5,16.7-24.8,42.4-24.8,77.1v164.1h-53.9
			V291.3h53.9v168.4C1746.6,424.6,1780.1,407.1,1825.1,407.1z"/>
	</g>
	<g id="ag">
		<path class="st0" d="M725.2,861.7l-2.4-6.9H707l-2.3,6.9h-8.2l13.4-38.3h9.4l13.5,38.3H725.2z M709.5,847.8h10.8l-5.5-15.7
			L709.5,847.8z"/>
		<path class="st0" d="M805.6,841.2v3c0,5.5-1.8,9.9-5.3,13.3c-3.5,3.4-8,5.1-13.6,5.1c-5.9,0-10.8-1.9-14.7-5.8
			c-3.9-3.8-5.8-8.5-5.8-14.1c0-5.6,1.9-10.3,5.8-14.2c3.8-3.9,8.6-5.8,14.3-5.8c3.6,0,6.8,0.8,9.8,2.4c3,1.6,5.3,3.8,6.9,6.5
			l-6.5,3.7c-0.9-1.6-2.3-2.8-4.1-3.8c-1.8-1-3.9-1.5-6.2-1.5c-3.7,0-6.7,1.2-9,3.6c-2.4,2.4-3.5,5.4-3.5,9.1c0,3.6,1.2,6.6,3.6,8.9
			c2.4,2.4,5.6,3.5,9.5,3.5c2.9,0,5.3-0.6,7.3-1.9c1.9-1.3,3.2-3.1,3.9-5.3h-11.6v-6.7H805.6z"/>
		<path class="st0" d="M851.4,854.5h16.1v7.2h-23.7v-38.3h23.4v7.2h-15.9v8.2h14.5v7.1h-14.5V854.5z M855.4,816.9l-2.4,3.6h-7
			l5.8-7.9h7.2l5.8,7.9h-7L855.4,816.9z"/>
		<path class="st0" d="M927.9,823.4h7.6v38.3h-5.7l-16.4-23.4v23.4h-7.6v-38.3h5.7l16.4,23.3V823.4z"/>
		<path class="st0" d="M993.5,862.5c-5.8,0-10.5-1.9-14.3-5.7c-3.8-3.8-5.6-8.6-5.6-14.2c0-5.7,1.9-10.4,5.6-14.2
			c3.8-3.8,8.5-5.7,14.3-5.7c3.5,0,6.7,0.8,9.6,2.4c2.9,1.6,5.2,3.8,6.9,6.6l-6.5,3.8c-1-1.7-2.3-3.1-4.1-4c-1.8-1-3.7-1.5-5.9-1.5
			c-3.7,0-6.7,1.2-9,3.5c-2.3,2.3-3.4,5.4-3.4,9.1c0,3.7,1.1,6.7,3.4,9c2.3,2.3,5.3,3.5,9,3.5c2.2,0,4.2-0.5,5.9-1.5
			c1.8-1,3.1-2.3,4-4l6.5,3.8c-1.6,2.8-3.9,5-6.8,6.6C1000.2,861.7,997,862.5,993.5,862.5z"/>
		<path class="st0" d="M1047.5,823.4h7.6v38.3h-7.6V823.4z"/>
		<path class="st0" d="M1120.2,861.7l-2.4-6.9H1102l-2.3,6.9h-8.2l13.4-38.3h9.4l13.5,38.3H1120.2z M1104.5,847.8h10.8l-5.5-15.7
			L1104.5,847.8z"/>
		<path class="st0" d="M1226.1,823.4c5.3,0,9.6,1.8,13.2,5.5c3.5,3.7,5.3,8.2,5.3,13.6c0,5.4-1.8,9.9-5.3,13.6
			c-3.5,3.7-7.9,5.5-13.2,5.5h-15.2v-38.3H1226.1z M1226.1,854.5c3.3,0,6-1.1,8.1-3.3c2.1-2.2,3.1-5.1,3.1-8.6c0-3.5-1-6.4-3.1-8.6
			c-2.1-2.2-4.8-3.3-8.1-3.3h-7.7v23.9H1226.1z"/>
		<path class="st0" d="M1290.4,854.5h16.1v7.2h-23.7v-38.3h23.4v7.2h-15.9v8.2h14.5v7.1h-14.5V854.5z"/>
		<path class="st0" d="M1428.7,823.4v38.3h-7.5v-24.8l-10.8,17.8l-0.9,0l-10.8-17.7v24.8h-7.6v-38.3h7.8l11,18.1l10.9-18.1H1428.7z"
			/>
		<path class="st0" d="M1493.8,861.7l-2.4-6.9h-15.7l-2.3,6.9h-8.2l13.4-38.3h9.4l13.5,38.3H1493.8z M1478.1,847.8h10.8l-5.5-15.7
			L1478.1,847.8z"/>
		<path class="st0" d="M1559,861.7l-7.7-13.3h-5.7v13.3h-7.6v-38.3h15.3c3.5,0,6.5,1.2,9,3.7c2.5,2.5,3.7,5.5,3.7,9
			c0,2.4-0.7,4.6-2,6.6c-1.3,2-3.1,3.5-5.4,4.6l8.5,14.5H1559z M1545.6,830.5v11.3h7.8c1.4,0,2.6-0.6,3.7-1.7c1-1.1,1.5-2.5,1.5-4
			c0-1.6-0.5-2.9-1.5-4c-1-1.1-2.2-1.6-3.7-1.6H1545.6z"/>
		<path class="st0" d="M1634.4,861.7h-8.7l-13.7-17.9v17.9h-7.6v-38.3h7.6v16.9l13.1-16.9h8.7l-14.2,18.6L1634.4,861.7z"/>
		<path class="st0" d="M1678.5,854.5h16.1v7.2H1671v-38.3h23.4v7.2h-15.9v8.2h14.5v7.1h-14.5V854.5z"/>
		<path class="st0" d="M1758.2,823.4v7.2h-10.3v31.1h-7.6v-31.1H1730v-7.2H1758.2z"/>
		<path class="st0" d="M1795.2,823.4h7.6v38.3h-7.6V823.4z"/>
		<path class="st0" d="M1864.9,823.4h7.6v38.3h-5.7l-16.4-23.4v23.4h-7.6v-38.3h5.7l16.4,23.3V823.4z"/>
		<path class="st0" d="M1950,841.2v3c0,5.5-1.8,9.9-5.3,13.3c-3.5,3.4-8,5.1-13.6,5.1c-5.9,0-10.8-1.9-14.7-5.8
			c-3.9-3.8-5.8-8.5-5.8-14.1c0-5.6,1.9-10.3,5.8-14.2c3.8-3.9,8.6-5.8,14.3-5.8c3.6,0,6.8,0.8,9.8,2.4c3,1.6,5.3,3.8,6.9,6.5
			l-6.5,3.7c-0.9-1.6-2.3-2.8-4.1-3.8c-1.8-1-3.9-1.5-6.2-1.5c-3.7,0-6.7,1.2-9,3.6c-2.4,2.4-3.5,5.4-3.5,9.1c0,3.6,1.2,6.6,3.6,8.9
			c2.4,2.4,5.6,3.5,9.5,3.5c2.9,0,5.3-0.6,7.3-1.9c1.9-1.3,3.2-3.1,3.9-5.3h-11.6v-6.7H1950z"/>
	</g>
</g>
</svg>
