<?xml version="1.0" encoding="utf-8"?>
<!-- Generator: Adobe Illustrator 21.0.0, SVG Export Plug-In . SVG Version: 6.00 Build 0)  -->
<svg version="1.1" id="Camada_1" xmlns="http://www.w3.org/2000/svg" xmlns:xlink="http://www.w3.org/1999/xlink" x="0px" y="0px"
	 viewBox="0 0 2000 500" style="enable-background:new 0 0 2000 500;" xml:space="preserve">
<style type="text/css">
	.st0{fill:#f1f1f1;}
</style>
<g>
	<path class="st0" d="M1420.4,274.6l30.6-111.7c8-27.7,12.7-48.7,16.5-70h0.6c2.9,21.6,7.3,42.6,14,70l27.1,111.7h29L1598.9,60
		h-28.3l-28.3,108.2c-6.7,26.7-12.7,50.6-17.2,74.2h-0.6c-3.2-22.6-8.9-48.1-15-73.5L1483.4,60h-29l-28.6,108.2
		c-7.3,27.7-14,53.1-17.5,74.5h-0.6c-3.8-20.7-9.5-47.4-15.9-74.2L1366.3,60H1337l54.4,214.5H1420.4z"/>
	<polygon class="st0" points="1746.3,251.3 1653.4,251.3 1653.4,174 1736.7,174 1736.7,151.1 1653.4,151.1 1653.4,83.3 1741.5,83.3 
		1741.5,60 1625.7,60 1625.7,274.6 1746.3,274.6 	"/>
	<path class="st0" d="M1899.4,256.4c10.8-10.5,18.1-24.5,18.1-43c0-31.8-23.9-48.7-44.2-53.8V159c22.6-8.3,36.3-26.4,36.3-47.1
		c0-16.9-6.7-29.6-17.8-37.9c-13.4-10.8-31.2-15.6-58.9-15.6c-19.4,0-38.5,1.9-50.6,4.5v211c9.2,1.3,23.9,2.5,43,2.5
		C1860.2,276.5,1884.4,270.1,1899.4,256.4z M1809.9,81.7c4.5-1,11.8-1.9,24.5-1.9c28,0,47.1,9.9,47.1,35c0,20.7-17.2,36-46.5,36
		h-25.1V81.7z M1809.9,171.8h22.9c30.2,0,55.4,12.1,55.4,41.4c0,31.2-26.4,41.7-55.1,41.7c-9.9,0-17.8-0.3-23.2-1.3V171.8z"/>
	<path class="st0" d="M1403,429.4c9.6-9.5,14.8-23.2,14.8-40c0-16.7-5.3-28.6-14.5-37c-9-8.4-22.6-12.8-41.7-12.8
		c-10.5,0-20.2,0.9-28.3,2.1V443c6.7,0.8,14.7,1.2,24.1,1.2C1377.5,444.2,1393.4,439,1403,429.4z M1346.7,351.5
		c3.5-0.8,8.7-1.4,15.6-1.4c28.1,0,41.9,15.4,41.7,39.7c0,27.8-15.4,43.7-43.8,43.7c-5.2,0-10.1-0.2-13.4-0.8V351.5z"/>
	<polygon class="st0" points="1493,432.1 1448.4,432.1 1448.4,395 1488.4,395 1488.4,384 1448.4,384 1448.4,351.5 1490.7,351.5 
		1490.7,340.3 1435.1,340.3 1435.1,443.3 1493,443.3 	"/>
	<path class="st0" d="M1532.3,433.8c-9.2,0-17.9-3.1-23.8-6.7l-3.4,11.2c5.5,3.7,16.3,6.6,26.3,6.6c24.3,0,36.1-13.7,36.1-29.6
		c0-15.1-8.9-23.5-26.3-30.2c-14.2-5.5-20.5-10.2-20.5-19.9c0-7,5.3-15.4,19.4-15.4c9.3,0,16.2,3.1,19.6,4.9l3.7-10.8
		c-4.6-2.6-12.2-5-22.8-5c-20,0-33.3,11.9-33.3,28c0,14.5,10.4,23.2,27.2,29.2c13.9,5.3,19.4,10.8,19.4,20.5
		C1553.8,426.6,1545.8,433.8,1532.3,433.8z"/>
	<rect x="1585.6" y="340.3" class="st0" width="13.3" height="103"/>
	<path class="st0" d="M1668.8,444.4c13.9,0,25.7-3.5,31.6-5.7v-49.5h-33.9v10.7h20.9v30.7c-3.1,1.5-9,2.7-17.7,2.7
		c-24,0-39.7-15.4-39.7-41.5c0-25.8,16.3-41.4,41.4-41.4c10.4,0,17.3,2,22.8,4.4l3.2-10.8c-4.4-2.1-13.7-4.7-25.7-4.7
		c-34.5,0-55.6,22.5-55.8,53.2c0,16,5.5,29.8,14.4,38.3C1640.4,440.4,1653.2,444.4,1668.8,444.4z"/>
	<path class="st0" d="M1733.3,399.3c0-17.1-0.3-29.5-1.1-42.5l0.5-0.2c5.2,11.2,12.1,22.9,19.2,34.4l32.7,52.2h13.4v-103h-12.5v43.1
		c0,16,0.3,28.6,1.5,42.3l-0.3,0.2c-4.9-10.5-10.8-21.4-18.5-33.5l-33-52.1h-14.5v103h12.5V399.3z"/>
	<path class="st0" d="M1826.6,445c5.7,0,9.2-4.1,9.2-9.6c0-5.7-3.7-9.6-9-9.6c-5.3,0-9.2,4-9.2,9.6
		C1817.6,440.8,1821.2,445,1826.6,445z"/>
	<path class="st0" d="M1305.9,25.1v273.4v9.7v171.4H1950V308.3v-9.7V25.1H1305.9z M1940.3,469.9h-624.7V308.3h624.7V469.9z
		 M1940.3,298.5h-624.7V34.8h624.7V298.5z"/>
	<path class="st0" d="M165.9,47.4L74.2,479.6H55V25.1h118.1C169.9,32.1,167.5,39.6,165.9,47.4z"/>
	<path class="st0" d="M493.3,479.6H433c15.8-11.9,30.7-29.8,45-56.7C472.8,444.4,479.3,465.7,493.3,479.6z"/>
	<path class="st0" d="M1149,445h1.4l-3.4,34.6h-35.3C1124.9,470.7,1137.3,459.2,1149,445z"/>
	<path class="st0" d="M1161.1,201.6c8.8,10.7,13.3,24.2,13.3,40.6c0,33.4-4.5,63.4-13.4,89.8c-9,26.4-20.8,47.3-35.6,62.7
		c-14.8,15.5-30.1,23.2-46,23.2c-14.4,0-25.4-5-33.3-15.2c-7.7-10-11.5-25.4-11.5-45.6c0-26.7,4.2-53.8,12.6-80.9
		c8.4-27.2,19.8-49.2,33.9-65.7c14.1-16.6,29.1-24.8,44.8-24.8C1140.4,185.5,1152.2,190.8,1161.1,201.6z"/>
	<path class="st0" d="M1264.6,25.1v84.7c-10.4,2.1-20.1,6.2-28.7,12c-12.7,8.6-23,21-28.9,35.9h-2.7c-9-18.5-21.6-32.6-37.9-42.2
		c-16.3-9.6-35.6-14.5-58-14.5c-32.3,0-61.9,11.4-88.9,34.1c-27,22.7-48.9,54.7-65.4,96.1c-16.6,41.4-24.8,85-24.8,130.6
		c0,44.4,9.6,78.8,29.2,103.3c4.3,5.4,9,10.2,14,14.5H851.2c23.5-18.7,38.4-47.7,38.4-79.7v-10.5c-15.9,8-31.4,14.8-46.3,20.2
		c-14.9,5.4-31.2,8.1-48.7,8.1c-18.6,0-33.3-5.7-43.7-16.8c-10.5-11.1-15.8-27.8-15.8-50c0-29.5,4.5-57.2,13.3-82.8
		c9-25.7,21.3-45.9,37.1-60.7c15.8-14.8,33.5-22.1,53.1-22.1c15.2,0,28.9,1.9,40.9,5.8c11.9,3.9,24.2,8.6,36.7,13.8
		c19.2-47.8-14-101-65.4-103.7c-5.4-0.3-10.9-0.4-16.3-0.4c-39.9,0-75.5,10.9-106.6,32.7c-31.1,21.9-55.3,52.7-72.5,92.7
		c-17.2,39.9-25.8,84.5-25.8,133.4c0,45.2,12.4,80.1,37.2,105c5.6,5.6,11.7,10.6,18.4,14.9H550.7l78.7-371.2
		c-60.7,0-113.1,42.5-125.7,101.8l-12.4,58.3c-9.9,47-23.6,83.7-40.9,110c-17.4,26.2-36.7,39.4-57.8,39.4
		c-24.8,0-37.3-14.1-37.3-42.5c0-11.7,1.9-25.4,5.6-41.1l47.4-226c-60.7,0-113.1,42.6-125.6,102l-22.5,107
		c-5.6,27.7-8.3,52.3-8.3,73.7c0,36,8.4,63.6,25.3,82.6c1.9,2.1,3.9,4.2,6,6.1H154.3c17.6-12.2,30.5-30.9,35.3-53l85.1-401.5H1264.6
		z"/>
	<polygon class="st0" points="1228,479.6 1264.6,308 1264.6,479.6 	"/>
</g>
</svg>
