<svg width="69" height="70" viewBox="0 0 69 70" fill="none" xmlns="http://www.w3.org/2000/svg">
<path d="M0.731369 35C1.11021 15.9064 15.7336 0.904175 34.903 0.904175C54.224 0.904175 69.1504 16.0579 68.9989 35.0758C68.9231 54.5483 53.6936 69.1717 34.8272 69.0959C15.6578 69.0201 1.11021 54.0179 0.731369 35ZM63.9224 34.3181C63.0889 16.7398 49.3748 5.60183 34.2211 6.05644C16.7943 6.58682 5.42902 20.3767 5.9594 35.682C6.48978 53.1087 20.2797 64.474 35.5849 63.9436C53.1632 63.4132 64.0739 49.4718 63.9224 34.3181Z" fill="#F92D76"/>
<path d="M31.2661 52.8056C27.5534 52.1237 24.75 50.1537 23.4619 46.4411C23.2346 45.8349 23.0831 45.0015 23.3862 44.6226C23.9166 43.8649 24.75 42.9557 25.5077 42.8042C26.2654 42.7284 27.4777 43.4103 27.9323 44.0922C28.7657 45.4561 29.2961 47.2745 31.0388 47.4261C33.5392 47.6534 36.1911 47.7291 38.5399 47.123C40.9645 46.5168 41.9495 44.0922 41.6464 41.4403C41.4191 39.1673 39.7522 37.2731 37.4034 36.8185C35.6607 36.5154 33.918 36.5911 32.1753 36.5154C24.9773 36.2881 20.6585 28.1051 24.3712 22.0436C25.9623 19.3917 28.3869 18.0278 31.3419 17.3459C31.6449 15.4517 31.1146 13.1029 34.0695 12.8756C35.7365 12.7998 36.3426 13.7848 36.7972 17.2702C39.3733 17.649 41.6464 18.634 43.2375 20.8313C43.8437 21.7405 44.4498 22.7255 44.7529 23.7863C45.2833 25.3016 44.6014 26.5897 43.3133 27.0443C41.8737 27.5747 40.5856 27.0443 39.9795 25.4532C39.0703 23.1043 37.3276 22.0436 34.903 22.1951C34.0695 22.1951 33.1603 22.1951 32.3269 22.2709C29.9023 22.4982 28.1596 24.5439 28.1596 27.1201C28.2354 29.6204 29.978 31.3631 32.4784 31.5904C34.8272 31.742 37.1761 31.742 39.4491 32.2723C43.2375 33.1058 47.4048 37.5761 46.7987 43.6376C46.3441 47.8807 42.5556 51.8964 37.9337 52.6541C37.5549 52.7299 37.1003 52.8056 36.7214 52.9572C36.3426 56.2152 35.6607 57.2002 34.1453 57.276C32.4784 57.276 31.8723 56.291 31.2661 52.8056Z" fill="#F92D76"/>
</svg>
