<?xml version="1.0" encoding="utf-8"?>
<!-- Generator: Adobe Illustrator 21.0.0, SVG Export Plug-In . SVG Version: 6.00 Build 0)  -->
<svg version="1.1" id="Camada_1" xmlns="http://www.w3.org/2000/svg" xmlns:xlink="http://www.w3.org/1999/xlink" x="0px" y="0px"
	 viewBox="0 0 100 100" style="enable-background:new 0 0 100 100;" xml:space="preserve">
<style type="text/css">
	.st0{fill:#FFFFFF;}
</style>
<g>
	<path class="st0" d="M14.1,50c0-11.7,0.2-23.3-0.1-35C13.9,8.9,18.2,4.9,24.2,4.9c11,0.1,22.1,0,33.1,0.1c1,0,2.2,0.5,2.9,1.2
		c8.3,8.1,16.4,16.3,24.6,24.6c0.7,0.7,1.2,1.9,1.2,2.9C85.9,50.8,85.8,68,86,85.1c0.1,5.9-4.4,10-9.9,9.9c-17.4-0.1-34.8,0-52.3,0
		c-5.9,0-10-4.2-9.9-9.9C14.2,73.4,14.1,61.7,14.1,50z M76.9,36.4c-7.5,0-14.8,0-22.4,0c0-7.5,0-14.9,0-22.2c-10.6,0-21,0-31.4,0
		c0,23.9,0,47.7,0,71.6c18,0,35.8,0,53.8,0C76.9,69.4,76.9,53.1,76.9,36.4z"/>
	<path class="st0" d="M41.5,53c2.5,2.7,5.3,5.6,8.3,8.7c5.1-5.2,9.9-10.2,14.7-15.1c2.4,2.5,4.4,4.5,6.3,6.4
		C63.9,59.9,57,66.9,49.9,74c-2.8-2.8-5.7-5.8-8.9-9c-2,2.3-3.8,4.2-5.6,6.2c-2.1-2.3-4-4.5-5.7-6.4C33.3,61.2,37.3,57.3,41.5,53z"
		/>
</g>
</svg>
