<svg width="132" height="70" viewBox="0 0 132 70" fill="none" xmlns="http://www.w3.org/2000/svg">
<path d="M57.3333 0C49.9813 0 44 5.98133 44 13.3333V34.6667C44 42.0187 49.9813 48 57.3333 48H78.6667C86.0187 48 92 42.0187 92 34.6667V13.3333C92 5.98133 86.0187 0 78.6667 0H57.3333ZM57.3333 5.33333H78.6667C83.0773 5.33333 86.6667 8.92267 86.6667 13.3333V34.6667C86.6667 39.0773 83.0773 42.6667 78.6667 42.6667H57.3333C52.9227 42.6667 49.3333 39.0773 49.3333 34.6667V13.3333C49.3333 8.92267 52.9227 5.33333 57.3333 5.33333ZM81.3333 8C80.6261 8 79.9478 8.28095 79.4477 8.78105C78.9476 9.28115 78.6667 9.95942 78.6667 10.6667C78.6667 11.3739 78.9476 12.0522 79.4477 12.5523C79.9478 13.0524 80.6261 13.3333 81.3333 13.3333C82.0406 13.3333 82.7189 13.0524 83.219 12.5523C83.7191 12.0522 84 11.3739 84 10.6667C84 9.95942 83.7191 9.28115 83.219 8.78105C82.7189 8.28095 82.0406 8 81.3333 8ZM68 10.6667C60.648 10.6667 54.6667 16.648 54.6667 24C54.6667 31.352 60.648 37.3333 68 37.3333C75.352 37.3333 81.3333 31.352 81.3333 24C81.3333 16.648 75.352 10.6667 68 10.6667ZM68 16C72.4107 16 76 19.5893 76 24C76 28.4107 72.4107 32 68 32C63.5893 32 60 28.4107 60 24C60 19.5893 63.5893 16 68 16Z" fill="#F92D76"/>
<path d="M112 30C100.978 30 92 38.978 92 50C92 61.022 100.978 70 112 70C123.022 70 132 61.022 132 50C132 38.978 123.022 30 112 30ZM112 34C120.86 34 128 41.1398 128 50C128 58.0289 122.131 64.626 114.438 65.7969V54.7695H119.094L119.824 50.0391H114.438V47.4531C114.438 45.4871 115.078 43.7422 116.918 43.7422H119.871V39.6133C119.351 39.5433 118.254 39.3906 116.18 39.3906C111.848 39.3906 109.309 41.6786 109.309 46.8906V50.0391H104.855V54.7695H109.309V65.7578C101.741 64.4817 96 57.9405 96 50C96 41.1398 103.14 34 112 34Z" fill="#F92D76"/>
<path d="M22 32C15.6274 32 9.99519 32.6641 6.55769 33.1688C3.71515 33.5871 1.42127 35.7387 0.899038 38.5875C0.456129 41.0113 0 44.5574 0 49C0 53.4426 0.456129 56.9887 0.899038 59.4125C1.42127 62.2613 3.71515 64.4195 6.55769 64.8312C10.0084 65.3359 15.6605 66 22 66C28.3395 66 33.9916 65.3359 37.4423 64.8312C40.2849 64.4195 42.5787 62.2613 43.101 59.4125C43.5439 56.982 44 53.4293 44 49C44 44.5707 43.5505 41.018 43.101 38.5875C42.5787 35.7387 40.2849 33.5871 37.4423 33.1688C34.0048 32.6641 28.3726 32 22 32ZM22 35.4C28.1478 35.4 33.6412 36.0309 36.9663 36.5156C38.3942 36.7281 39.5114 37.8105 39.7692 39.225C40.1791 41.4695 40.6154 44.7965 40.6154 49C40.6154 53.1969 40.1791 56.5305 39.7692 58.775C39.5114 60.1895 38.4008 61.2785 36.9663 61.4844C33.628 61.9691 28.1082 62.6 22 62.6C15.8918 62.6 10.3654 61.9691 7.03365 61.4844C5.60577 61.2785 4.48858 60.1895 4.23077 58.775C3.82091 56.5305 3.38462 53.2102 3.38462 49C3.38462 44.7832 3.82091 41.4695 4.23077 39.225C4.48858 37.8105 5.59916 36.7281 7.03365 36.5156C10.3522 36.0309 15.8522 35.4 22 35.4ZM16.9231 39.2781V58.7219L19.4615 57.2875L31.3077 50.4875L33.8462 49L31.3077 47.5125L19.4615 40.7125L16.9231 39.2781ZM20.3077 45.1219L27.024 49L20.3077 52.8781V45.1219Z" fill="#F92D76"/>
</svg>
