<?xml version="1.0" encoding="utf-8"?>
<!-- Generator: Adobe Illustrator 21.0.0, SVG Export Plug-In . SVG Version: 6.00 Build 0)  -->
<svg version="1.1" id="Camada_1" xmlns="http://www.w3.org/2000/svg" xmlns:xlink="http://www.w3.org/1999/xlink" x="0px" y="0px"
	 viewBox="0 0 100 100" style="enable-background:new 0 0 100 100;" xml:space="preserve">
<style type="text/css">
	.st0{fill:#FFFFFF;}
</style>
<g>
	<path class="st0" d="M49.5,31.5c-3.1-3.2-5.7-6-8.5-8.9c-9.5,9.6-18.8,19-28.2,28.5c-2.5-2.6-4.6-4.9-6.7-7.1
		c9.2-9.1,18.5-18.5,28.3-28.3c-3.2-2.9-6.1-5.5-9-8.2c0.2-0.2,0.3-0.4,0.5-0.6c7.8,0,15.7,0,23.7,0C49.5,14.9,49.5,22.8,49.5,31.5z
		"/>
	<path class="st0" d="M44.8,56.1c3.3,0,6.4,0,9.7,0c0,12.9,0,25.8,0,38.9c-3.2,0-6.4,0-9.7,0C44.8,82.1,44.8,69.2,44.8,56.1z"/>
	<path class="st0" d="M25.4,65.8c3.2,0,6.2,0,9.4,0c0,9.7,0,19.4,0,29.2c-3.1,0-6.2,0-9.4,0C25.4,85.3,25.4,75.7,25.4,65.8z"/>
	<path class="st0" d="M15.2,75.6c0,6.6,0,12.9,0,19.4c-3.2,0-6.3,0-9.5,0c0-6.4,0-12.8,0-19.4C8.8,75.6,11.9,75.6,15.2,75.6z"/>
	<path class="st0" d="M64.6,75.6c3.1,0,6.2,0,9.4,0c0,6.4,0,12.8,0,19.4c-3,0-6.1,0-9.4,0C64.6,88.6,64.6,82.1,64.6,75.6z"/>
	<path class="st0" d="M93.7,75.6c0,6.5,0,12.9,0,19.4c-3.2,0-6.3,0-9.5,0c0-6.5,0-12.9,0-19.4C87.3,75.6,90.4,75.6,93.7,75.6z"/>
	<path class="st0" d="M94.8,46c0-4.2-1.6-7.4-4.9-9.8c-1.1-0.7-3-1.7-5.8-2.9V22.8c1.1,0.8,2,2,2.6,3.6l7.4-4.3
		c-2.1-4.6-5.4-7.5-10-8.6V7.3h-8.3v5.9c-2.8,0.6-5.2,1.8-7.3,3.6c-2.4,2.3-3.7,5.3-3.7,9c0,1.6,0.3,3.1,0.8,4.5
		c0.5,1.4,1.1,2.5,1.9,3.4c0.7,0.9,1.7,1.7,2.9,2.5c1.3,0.8,2.4,1.4,3.3,1.9c0.6,0.3,1.3,0.6,2.1,0.9v11.3c-2.4-0.8-4.2-2.6-5.3-5.4
		L63,49.2c1.1,3,2.9,5.3,5.5,7.1c2.1,1.4,4.6,2.4,7.4,2.8v5.7h1.8v0.1h4.3v-0.1h2.2v-6c2.8-0.7,5.2-1.9,7.1-3.8
		C93.7,52.7,94.8,49.7,94.8,46z M74.6,28.4c-0.6-0.7-0.9-1.5-0.9-2.5c0-1.1,0.3-2,1-2.8c0.3-0.4,0.7-0.7,1.2-0.9v7.3
		C75.3,29.1,74.9,28.7,74.6,28.4z M84.2,49.6v-7.1c0.3,0.3,0.6,0.5,0.9,0.8c0.7,0.7,1,1.6,1,2.7C86,47.6,85.4,48.8,84.2,49.6z"/>
</g>
</svg>
