<?xml version="1.0" encoding="utf-8"?>
<!-- Generator: Adobe Illustrator 21.0.0, SVG Export Plug-In . SVG Version: 6.00 Build 0)  -->
<svg version="1.1" id="Camada_1" xmlns="http://www.w3.org/2000/svg" xmlns:xlink="http://www.w3.org/1999/xlink" x="0px" y="0px"
	 viewBox="0 0 100 100" style="enable-background:new 0 0 100 100;" xml:space="preserve">
<style type="text/css">
	.st0{fill:#FFFFFF;}
</style>
<g>
	<path class="st0" d="M16.7,49.9c0-11.3,0-22.5,0-33.8c0-6.2,3.9-10.1,10-10.1c11.9,0,23.8,0,35.7,0c3.5,0,6.3,1.3,8.5,4.1
		c3.5,4.4,7.1,8.8,10.7,13.1c2,2.4,3,5,3,8.2c-0.1,17.4,0,34.8,0,52.2c0,6.4-3.8,10.3-10,10.3c-15.9,0-31.9,0-47.8,0
		c-6.2,0-10-3.9-10-10.3C16.7,72.4,16.7,61.2,16.7,49.9z M59.9,12.3c-0.8,0-1.4,0-2,0c-10.3,0-20.6,0-30.8,0c-3.3,0-4.2,1-4.2,4.3
		c0,22.3,0,44.5,0,66.8c0,3.3,1,4.3,4.2,4.3c15.7,0,31.4,0,47,0c3.3,0,4.3-1,4.3-4.3c0-16.7,0-33.4,0-50.1c0-0.7,0-1.4,0-2.2
		c-3.2,0-6,0-8.9,0c-5.6,0-9.6-4-9.6-9.8C59.9,18.4,59.9,15.5,59.9,12.3z M74.9,24.8c-3-3.7-5.8-7-8.8-10.7c0,3-0.1,5.4,0,7.8
		c0.1,1.7,1.1,2.8,2.8,2.9C70.8,24.9,72.6,24.8,74.9,24.8z"/>
	<path class="st0" d="M47.6,61.2c0-4.7,0-8.9,0-13.2c0-3.2,0-6.4,0-9.6c0-2.7,1.1-4.1,3-4.1c2,0,3.1,1.4,3.1,4.1
		c0,7.4,0,14.9,0,22.9c1.8-1.9,3.3-3.4,4.8-4.9c0.6-0.6,1.3-1.3,1.9-1.9c1.6-1.6,3.5-1.7,4.8-0.3c1.2,1.3,1.2,3.2-0.3,4.7
		c-2.4,2.5-4.8,4.9-7.2,7.4c-1.5,1.5-3,3.1-4.5,4.6c-1.8,1.7-3.3,1.8-5,0.1c-3.9-3.9-7.8-7.9-11.7-11.9c-1.6-1.6-1.7-3.5-0.3-4.8
		c1.3-1.3,3.2-1.2,4.8,0.4C43,56.6,45.1,58.7,47.6,61.2z"/>
</g>
</svg>
