<?xml version="1.0" encoding="utf-8"?>
<!-- Generator: Adobe Illustrator 21.0.0, SVG Export Plug-In . SVG Version: 6.00 Build 0)  -->
<svg version="1.1" id="Camada_1" xmlns="http://www.w3.org/2000/svg" xmlns:xlink="http://www.w3.org/1999/xlink" x="0px" y="0px"
	 viewBox="0 0 100 100" style="enable-background:new 0 0 100 100;" xml:space="preserve">
<style type="text/css">
	.st0{fill:#FFFFFF;}
</style>
<path class="st0" d="M91,69c-1.2-0.5-2.3-1-3.5-1.5c-0.5,1.3-1,2.7-1.7,4c-2,4.2-4.8,7.8-8.8,10.4c-6,3.9-12.9,3.4-18.6-1.1
	c-3.9-3.1-6.5-7.1-8.3-11.7c-0.2-0.6-0.4-1.1-0.7-1.8c-2.3,1.9-5,1.5-7.5,1.4c-1.3,0-2.3-0.8-2.3-2.2c0.1-7.1-0.4-14.3,0.5-21.3
	c1.6-12,11.8-21,23.9-22.1c7.9-0.7,15.3,0.2,21.9,4.8c7.4,5.1,11.1,12.4,11.5,21.3c0.2,5.2,0,10.4,0,15.6c0,3-0.4,3.5-3.2,4.1
	c-0.4,2.4-0.7,4.9-1.4,7.2c-2.4,8.2-7.7,13.6-15.7,16.4c-0.9,0.3-1.4,0.7-1.9,1.7c-0.4,0.9-1.7,1.9-2.6,2c-2.7,0.3-5.5,0.1-8.3,0.1
	c-0.3,0-0.6-0.1-0.9-0.2c-1.9-0.6-2.5-2.6-2.1-6.1c0.2-1.7,1.3-2.7,3.1-2.8c2.6-0.1,5.3,0,7.9,0c1.6,0,2.6,0.9,3.1,2.3
	C83,88.4,90.8,80.6,91,69z M85.4,57.8c-8.4,0.4-15.9-1.5-21.3-8.7c-2.7,5.3-7,7-12.6,6.4c0,1.9,0,3.5,0,5.1
	c0.2,7.3,3.2,13.3,8.8,17.8c3.1,2.5,6.6,3.7,10.6,2.8c3-0.6,5.4-2.2,7.5-4.3C83.6,71.7,85.9,65.4,85.4,57.8z M48.5,53.2
	c-0.1-5.3,1.2-10.2,4.7-14.4c3.5-4.2,8-6.6,13.4-7.1c4.4-0.4,8.5,0.5,12.3,2.9c6.8,4.4,9.7,10.8,9.6,18.6c2.1-0.2,4-0.3,6-0.5
	c0.5-8.6-2.1-15.9-8.9-21.4c-4.4-3.6-9.6-5.1-15.1-5.4c-8.5-0.4-16.2,1.6-22.1,8.3c-4.7,5.3-6.4,11.5-5.8,18.5
	C44.6,52.9,46.5,53,48.5,53.2z M51.4,52.3c5,1.1,8.8-1.1,10.7-6.1c0.3-0.9,1.1-1.5,1.7-2.3c0.6,0.7,1.5,1.2,1.8,2
	c3.3,6.9,12.6,9.9,19.7,8.5c0.6-7.2-1.6-13.3-7.9-17.2c-5.8-3.7-11.9-3.7-17.7-0.2C54.1,40.4,51.5,45.7,51.4,52.3z M94.4,55.8
	c-2,0.2-4.6-0.9-5.3,1.4c-0.7,2.2-0.7,5,0,7.2c0.7,2.2,3.3,1.3,5.2,1.3C94.4,62.4,94.4,59.2,94.4,55.8z M42.6,65.8
	c2.1,0,4.7,0.7,5.4-1.5c0.6-2.2,0.6-5-0.2-7.2C47,55,44.5,56,42.6,55.9C42.6,59.3,42.6,62.4,42.6,65.8z M64.4,93.4
	c2.8,0,5.4,0,8.1,0c0-1,0-1.9,0-2.8c-2.8,0-5.4,0-8.1,0C64.4,91.5,64.4,92.3,64.4,93.4z"/>
<path class="st0" d="M27.9,51.7c0-3.7,0-6.8,0-10c0-2.8,1-3.8,3.8-3.8c1.1,0,2.2-0.2,3.3,0.1c0.6,0.1,1,1,1.5,1.5
	c-0.5,0.5-1,1.3-1.6,1.4c-1.2,0.2-2.5,0.1-4,0.1c0,3.5,0,6.9,0,10.2c0,1.6-0.1,3.1-1.9,3.7c-1.8,0.6-2.8-0.5-3.8-1.7
	c-3-3.7-6-7.5-9-11.1c-0.5-0.6-1.4-1-2.1-1c-2.1-0.1-4.2,0-6.3-0.1c-2.8,0-4.1-1.4-4.1-4.2c0-10.2,0-20.4,0-30.5
	c0-2.5,1-3.6,3.5-3.6c16.1,0,32.3,0,48.4,0c2.4,0,3.9,1.4,4,3.8c0.1,3.4,0.1,6.7,0,10.1c0,0.6-1,1.3-1.5,1.9c-0.5-0.7-1.3-1.3-1.3-2
	c-0.1-3-0.1-6,0-9c0-1.6-0.5-2.2-2.1-2.2c-15.4,0-30.8,0-46.2,0c-1.5,0-2.1,0.5-2.1,2c0,9.6,0,19.1,0,28.7c0,1.5,0.6,2.1,2.1,2
	c1.8-0.1,3.7,0.1,5.5,0c2.2-0.2,3.6,0.7,4.8,2.4c2.6,3.5,5.4,6.8,8.2,10.2C27,50.8,27.3,51,27.9,51.7z"/>
<path class="st0" d="M30,15.1c-5.1,0-10.2,0-15.3,0c-1.1,0-2.3-0.1-2.2-1.5c0-1.2,1.1-1.5,2.1-1.5c10.3,0,20.6,0,30.9,0
	c1.1,0,2.1,0.2,2.1,1.5c0,1.3-1,1.5-2.1,1.5C40.5,15.1,35.3,15.1,30,15.1z"/>
<path class="st0" d="M30.1,21.8c-5,0-10,0-15.1,0c-1.1,0-2.4,0.1-2.4-1.5c0-1.4,1.2-1.5,2.3-1.5c10.2,0,20.3,0,30.5,0
	c1.1,0,2.3,0,2.3,1.5c0,1.5-1.2,1.5-2.2,1.5C40.3,21.8,35.2,21.8,30.1,21.8z"/>
<path class="st0" d="M24.7,28.5c-3.3,0-6.6,0-9.9,0c-1.1,0-2.3-0.1-2.2-1.5c0-1.3,1.1-1.4,2.2-1.4c6.6,0,13.2,0,19.8,0
	c1.1,0,2.3,0,2.2,1.5c0,1.5-1.3,1.4-2.3,1.4C31.2,28.5,28,28.5,24.7,28.5z"/>
<path class="st0" d="M68.5,77c-1.6-0.8-3.2-1.3-4.5-2.2c-0.4-0.3-0.3-1.3-0.4-2c0.7-0.1,1.5-0.5,1.9-0.2c2,1.4,3.8,1.3,5.7,0
	c0.4-0.3,1.5,0,1.8,0.4c0.3,0.4,0.2,1.6-0.2,1.8C71.6,75.5,70.1,76.2,68.5,77z"/>
<path class="st0" d="M58.8,62.6c0.8-0.5,1.5-1.3,2.3-1.5c1.2-0.2,2,0.7,2,1.9c0,1.3-0.8,2.2-2.1,2c-0.8-0.1-1.5-1-2.2-1.6
	C58.8,63.2,58.8,62.9,58.8,62.6z"/>
<path class="st0" d="M73.5,62.6c0.8-0.5,1.5-1.3,2.3-1.5c1.2-0.2,2,0.7,2,1.9c0.1,1.3-0.8,2.2-2,2c-0.8-0.1-1.5-1-2.3-1.5
	C73.5,63.2,73.5,62.9,73.5,62.6z"/>
</svg>
