<?xml version="1.0" encoding="utf-8"?>
<!-- Generator: Adobe Illustrator 21.0.0, SVG Export Plug-In . SVG Version: 6.00 Build 0)  -->
<svg version="1.1" id="Camada_1" xmlns="http://www.w3.org/2000/svg" xmlns:xlink="http://www.w3.org/1999/xlink" x="0px" y="0px"
	 viewBox="0 0 100 100" style="enable-background:new 0 0 100 100;" xml:space="preserve">
<style type="text/css">
	.st0{fill:#FFFFFF;}
</style>
<g>
	<g>
		<path class="st0" d="M77,76.4c-0.3,0-0.5,0-1-0.1v-1.8c0-1,0-1.9,0-2.9h-2.2c0,1.1,0,2.1,0,3.2c0,0.5,0,0.9,0,1.5H15v-1.5
			c0-10.6,0-21.1,0-31.7c0-2.7,0.9-3.6,3.6-3.6c13.3,0,26.6,0,39.9,0v-2.2c-13.3,0-26.7,0-40,0c-3.8,0-5.7,1.9-5.7,5.7
			c0,10.5,0,21.1,0,31.6c0,0.5,0,1.1,0,1.8c-1.1,0-1.9-0.1-2.8,0c-0.5,0.1-1.2,0.6-1.2,0.9c-0.1,1.8-0.2,3.6,0.1,5.3
			c0.5,2.7,2.7,4.1,5.8,4.1c19.3,0,38.6,0,57.9,0c5.9,0,7.4-1.5,7.4-7.4C79.9,76.8,80.3,76.3,77,76.4z M35,78.8h18.7
			c-0.7,1.1-1.6,1.6-2.8,1.6c-4.4,0-8.8,0.1-13.2,0c-0.9,0-1.9-0.7-2.8-1.1C34.9,79.1,34.9,79,35,78.8z M72.4,84.6
			c-18.9-0.1-37.8,0-56.8,0c-4.1,0-4.8-0.7-4.8-4.9c0-0.3,0-0.5,0-0.9c0.5,0,1-0.1,1.4-0.1c6.2,0,12.4,0,18.6,0c0.9,0,1.4,0.2,1.8,1
			c1,2,2.7,3,5,3c4.3,0,8.6,0,12.9,0c2.4,0,4-1.1,5.2-3.1c0.2-0.4,0.8-0.8,1.2-0.8c6.7,0,13.4,0,20,0c0.1,0,0.3,0.1,0.4,0.1
			c0.1,0.2,0.1,0.2,0.1,0.2C77.9,83.2,77.4,84.6,72.4,84.6z"/>
		<path class="st0" d="M44.4,42.5c0.9,0,1.8-0.1,2.6,0c0.5,0.1,0.9,0.7,1.3,1.1c-0.4,0.4-0.8,1-1.2,1.1c-1.9,0.1-3.8,0.1-5.7,0
			c-0.4,0-0.8-0.7-1.2-1.1c0.4-0.4,0.7-1,1.2-1C42.5,42.4,43.5,42.5,44.4,42.5z"/>
	</g>
	<g>
		<path class="st0" d="M92.2,43.4c0,6.6-0.1,13.3,0,19.9c0,3.6-2.7,5.8-5.7,5.8c-6.6-0.1-13.2,0-19.7,0c-3.1,0-5.4-2.2-5.4-5.3
			c0-13.6,0-27.2,0-40.8c0-3.1,2.3-5.3,5.4-5.3c6.7,0,13.4,0,20,0c3.2,0,5.4,2.2,5.4,5.4C92.2,29.9,92.2,36.7,92.2,43.4z M90.1,28
			c-8.9,0-17.7,0-26.5,0c0,10.3,0,20.5,0,30.7c8.9,0,17.7,0,26.5,0C90.1,48.5,90.1,38.3,90.1,28z M90.1,60.9c-9,0-17.8,0-26.7,0
			c0,0.9,0,1.7,0,2.5c0,2.4,1.2,3.6,3.6,3.6c3.6,0,7.3,0,10.9,0c2.9,0,5.9,0,8.8,0c2,0,3.2-1.2,3.3-3.1C90.2,62.9,90.1,62,90.1,60.9
			z M90.1,25.9c0-0.9,0-1.7,0-2.6c0-2.4-1.2-3.6-3.6-3.6c-3,0-6,0-9,0c-3.5,0-7.1,0-10.6,0c-1.7,0-3,0.8-3.3,2.2
			c-0.2,1.3-0.2,2.6-0.2,3.9C72.4,25.9,81.2,25.9,90.1,25.9z"/>
		<path class="st0" d="M76.5,65.1c-0.2-0.4-0.7-0.8-0.6-1.2c0.1-0.4,0.6-0.6,1-1c0.3,0.4,0.8,0.7,0.9,1.1c0,0.3-0.5,0.7-0.8,1.1
			C76.8,65.1,76.6,65.1,76.5,65.1z"/>
		<path class="st0" d="M76.8,23.9c-0.6,0-1.3,0-1.9,0c-0.7,0-1.2-0.3-1.2-1.1c0-0.7,0.5-1,1.1-1c1.3,0,2.5,0,3.8,0
			c0.6,0,1.1,0.3,1.1,1c0,0.8-0.5,1-1.2,1.1C78,24,77.4,23.9,76.8,23.9z"/>
	</g>
</g>
</svg>
