<?xml version="1.0" encoding="utf-8"?>
<!-- Generator: Adobe Illustrator 21.0.0, SVG Export Plug-In . SVG Version: 6.00 Build 0)  -->
<svg version="1.1" id="Camada_1" xmlns="http://www.w3.org/2000/svg" xmlns:xlink="http://www.w3.org/1999/xlink" x="0px" y="0px"
	 viewBox="0 0 100 100" style="enable-background:new 0 0 100 100;" xml:space="preserve">
<style type="text/css">
	.st0{fill:#FFFFFF;}
</style>
<g>
	<path class="st0" d="M38.1,87.6c0-3.3,0-6.3,0-9.6c-0.8,0-1.5,0-2.1,0c-6,0-12,0-18,0C9.7,78,4.8,73.1,4.8,64.9c0-14,0-28.1,0-42.1
		c0-7.7,5-12.8,12.7-12.8c22.3,0,44.6,0,67,0c7.8,0,12.8,5.1,12.8,12.9c0,14.1,0,28.2,0,42.3c0,7.7-5,12.7-12.7,12.8
		c-6.7,0-13.3,0-20,0c-0.1,0-0.3,0-0.6,0.1c0,3,0,6.1,0,9.5c2.8,0,5.7,0,8.5,0c0.7,0,1.6-0.1,2.1,0.3c0.6,0.5,1.3,1.3,1.4,2.1
		c0,0.6-0.7,1.4-1.3,1.9c-0.5,0.3-1.2,0.3-1.9,0.3c-14.5,0-29,0-43.5,0c-0.4,0-0.8,0-1.2,0c-1.3-0.2-2.2-0.8-2.2-2.3
		c0-1.5,1-2.1,2.3-2.2c2.5-0.1,5,0,7.4,0C36.5,87.6,37.2,87.6,38.1,87.6z M93,62.8c0-0.9,0-1.5,0-2.1c0-12.5,0-25.1,0-37.6
		c0-5.6-3-8.6-8.6-8.6c-22.2,0-44.4,0-66.6,0c-5.6,0-8.6,2.9-8.6,8.6c0,12.5,0,25.1,0,37.6c0,0.7,0,1.4,0,2.1
		C37.2,62.8,64.9,62.8,93,62.8z M9.5,67.5c0.1,0.4,0.1,0.8,0.2,1.1c1.2,3.2,3.9,4.9,7.9,4.9c22.3,0,44.6,0,67,0c0.7,0,1.3,0,2-0.1
		c3.1-0.4,5.6-2.8,6-5.9C64.9,67.5,37.2,67.5,9.5,67.5z M42.8,87.6c2.9,0,5.5,0,8.2,0c2.7,0,5.4,0,8.2,0c0-3.3,0-6.4,0-9.6
		c-2.8,0-5.5,0-8.2,0c-2.7,0-5.4,0-8.2,0C42.8,81.3,42.8,84.3,42.8,87.6z"/>
	<path class="st0" d="M51.1,58.5c-10.9,0-19.9-8.9-19.9-19.8c0-10.9,8.9-19.8,19.8-19.9c11,0,20,8.9,20,19.9
		C70.9,49.7,62,58.5,51.1,58.5z M66.4,38.6c0-8.6-6.9-15.4-15.5-15.4c-8.4,0-15.3,6.9-15.3,15.4c0,8.6,6.9,15.5,15.4,15.5
		C59.6,54.1,66.5,47.2,66.4,38.6z"/>
	<path class="st0" d="M48,41.7c2.8-2.8,5.3-5.3,7.7-7.8c0.4-0.4,0.8-0.8,1.3-1.2c1-0.8,2-0.9,3,0c1,1,1,2.1,0,3.1
		c-3.4,3.5-6.9,6.9-10.4,10.4c-1,1-2.1,0.9-3.1,0c-1.5-1.5-3-2.9-4.4-4.4c-1-1-1-2.1,0-3.1c1-1,2.1-0.9,3.1,0
		C46.1,39.5,46.9,40.5,48,41.7z"/>
</g>
</svg>
