<?xml version="1.0" encoding="utf-8"?>
<!-- Generator: Adobe Illustrator 21.0.0, SVG Export Plug-In . SVG Version: 6.00 Build 0)  -->
<svg version="1.1" id="Camada_1" xmlns="http://www.w3.org/2000/svg" xmlns:xlink="http://www.w3.org/1999/xlink" x="0px" y="0px"
	 viewBox="0 0 100 100" style="enable-background:new 0 0 100 100;" xml:space="preserve">
<style type="text/css">
	.st0{fill:#FFFFFF;}
</style>
<path class="st0" d="M92.5,45.9c-0.1-0.3-0.1-0.6-0.2-0.8c0,0,0,0,0,0c-0.1-0.3-0.2-0.5-0.2-0.6c0,0,0,0,0,0
	c-1.3-4.2-3.6-7.9-7.2-10.4c-11.3-8-23-3.9-31.1,7.1c1.8,1.6,3.6,3.3,5.5,5c1.8-1.9,3.7-4.2,5.9-6c4.6-3.8,11.3-3.5,15.9,0.5
	c4.4,3.9,5.5,10.5,2.5,15.6c-4.3,7.2-13.9,8.3-19.9,2.2c-7.3-7.4-14.5-14.9-21.8-22.3c-4.9-5-10.8-7-17.7-5.9
	C13.2,32,5.7,42.9,7.9,54C10,64.9,21.1,72,32,69.6c6.4-1.5,10.4-6,14.6-10.5c-1.8-1.7-3.6-3.4-5.6-5.2c-1.8,1.8-3.6,4.1-5.8,5.9
	c-4.7,4-11.7,3.6-16.3-0.6C14.5,55,13.7,48.1,17.1,43c4.6-6.7,13.8-7.4,19.6-1.4c7.3,7.5,14.6,15.1,22,22.5
	c7.9,7.9,20.5,7.8,28.4-0.2c2.4-2.4,3.8-5.3,4.9-8.4c0.1-0.2,0.1-0.3,0.2-0.5c0-0.1,0-0.1,0.1-0.2c0.1-0.2,0.1-0.4,0.2-0.7
	C93.4,50.8,92.9,47.7,92.5,45.9z"/>
</svg>
