<?xml version="1.0" encoding="utf-8"?>
<!-- Generator: Adobe Illustrator 21.0.0, SVG Export Plug-In . SVG Version: 6.00 Build 0)  -->
<svg version="1.1" id="Camada_1" xmlns="http://www.w3.org/2000/svg" xmlns:xlink="http://www.w3.org/1999/xlink" x="0px" y="0px"
	 viewBox="0 0 100 100" style="enable-background:new 0 0 100 100;" xml:space="preserve">
<style type="text/css">
	.st0{fill:#fff;}
</style>
<g>
	<path class="st0" d="M91.9,15.9c0-1.4-0.4-2-1.8-2.4C77.4,10.1,64.8,6.7,52.2,3.3c-0.7-0.2-1.6-0.2-2.3,0
		c-11.7,3.1-23.4,6.3-35.1,9.5c-4.5,1.2-4.6,1.2-4.5,6c0.1,8.8-0.6,17.7,0.4,26.4c2.5,23.7,15,40.6,36.6,50.7c2.7,1.3,4.9,1.3,7.5,0
		c19.3-9,31.6-23.6,35.7-44.5c0.5-2.5,0.8-5,1-7.6l0,0.1c0.3-3.8,0.3-14.5,0.3-14.5l0,0C91.9,24.9,91.8,20.4,91.9,15.9z M85.3,44.5
		C83,66,71.7,81.2,52,90.2c-0.6,0.3-1.5,0.2-2.1,0c-18.6-8.4-29.6-22.7-32.9-42.8c-0.5-2.9-0.6-5.8-0.7-8.8l0-6c0,0,0,0,0,0
		c0-4.1,0-8.1,0-12.2c0-1.2,0.3-1.8,1.6-2.2c10.6-2.8,21.2-5.7,31.9-8.6c0.7-0.2,1.6-0.2,2.3,0c10.7,2.9,21.4,5.8,32,8.6
		c1.1,0.3,1.5,0.7,1.5,1.8C85.6,28.3,86.1,36.5,85.3,44.5z"/>
	<path class="st0" d="M47.4,60.2c-5.9-5-11.6-9.9-17.4-14.8c-1.4,1.7-2.7,3.2-4,4.7c7.5,6.3,14.8,12.6,22.2,18.9
		c9.4-11.3,18.7-22.5,28.1-33.7c-1.7-1.4-3.2-2.6-4.8-4C63.4,41,55.4,50.6,47.4,60.2z"/>
</g>
</svg>
