<?xml version="1.0" encoding="utf-8"?>
<!-- Generator: Adobe Illustrator 21.0.0, SVG Export Plug-In . SVG Version: 6.00 Build 0)  -->
<svg version="1.1" id="Camada_1" xmlns="http://www.w3.org/2000/svg" xmlns:xlink="http://www.w3.org/1999/xlink" x="0px" y="0px"
	 viewBox="0 0 100 100" style="enable-background:new 0 0 100 100;" xml:space="preserve">
<style type="text/css">
	.st0{fill:#FFFFFF;}
</style>
<g>
	<g>
		<g>
			<path class="st0" d="M66.8,39.8c0,1.3-0.5,2.3-1.4,3.1c-0.9,0.8-2.1,1.3-3.6,1.4v2h-1.6v-2c-1.4-0.1-2.6-0.4-3.6-1
				c-1-0.6-1.7-1.4-2.2-2.4l2.1-1.1c0.6,1.4,1.8,2.2,3.7,2.4v-5.6c-0.8-0.2-1.4-0.5-1.9-0.7c-0.5-0.2-1-0.5-1.5-0.8
				c-0.5-0.4-0.9-0.8-1.2-1.3c-0.3-0.5-0.4-1.1-0.4-1.8c0-1.2,0.5-2.2,1.4-3c0.9-0.8,2.1-1.2,3.5-1.4v-2h1.6v2c1,0.1,2,0.4,2.8,1
				c0.8,0.5,1.4,1.2,1.9,2.1l-2,1c-0.5-1.1-1.4-1.8-2.6-2v5.3c0.8,0.3,1.4,0.5,1.9,0.7c0.5,0.2,1,0.5,1.5,0.8c0.6,0.4,1,0.8,1.2,1.3
				C66.7,38.6,66.8,39.2,66.8,39.8z M57.6,32.2c0,0.6,0.2,1.1,0.6,1.4c0.4,0.4,1,0.7,1.9,1v-4.7c-0.8,0.1-1.4,0.3-1.8,0.7
				C57.8,31,57.6,31.6,57.6,32.2z M61.8,42.3c0.8-0.1,1.5-0.4,1.9-0.8c0.5-0.4,0.7-1,0.7-1.6c0-0.6-0.2-1.1-0.6-1.5
				c-0.4-0.4-1.1-0.7-2-1.1V42.3z"/>
		</g>
		<path class="st0" d="M86.6,35.4c0.1-0.6,0.2-1,0.1-1.4c-0.9-7.8-4.4-14.1-10.7-18.8c-5.3-3.9-11.4-5.5-17.9-4.9
			c-3.1,0.3-6.1,1.2-9,2.6c-5,2.5-8.9,6.1-11.5,11c-2.8,5.1-3.9,10.6-2.9,16.5c0.5,2.8,1.3,5.4,2.5,7.9c0.4,0.8,0.9,1.1,1.7,0.9
			c1-0.1,2-0.3,3-0.4c3.7-0.5,7.3,0.3,10.7,1.4c1,0.3,1.9,0.9,2.9,1.4c2.3,1,4.7,0.8,7.1,0.5c3.8-0.5,7.1-2.1,9.6-5.1
			c3.6-4.1,5-8.8,3.7-14.2c-1-4.1-3.3-7.3-6.9-9.6c-3.8-2.4-7.9-3.2-12.4-2c-3.9,1-7,3.2-9.2,6.6c-2.4,3.6-3.4,7.6-2.2,11.9
			c0.4,1.5,1,2.9,1.6,4.3c0.3,0.7,0.4,1.3-0.4,1.7c-0.8,0.4-1.2-0.2-1.5-0.7c-1.6-2.7-2.3-5.7-2.2-8.9c0.2-6.9,3.4-12.1,9.4-15.5
			c3.7-2.1,7.7-2.6,11.7-1.9c5,0.9,9,3.6,11.8,7.9c2.5,3.8,3.4,8,2.7,12.5c-0.8,5.1-3.5,9.2-7.7,12.1c-0.7,0.5-0.7,0.9,0.1,1.3
			c0.8,0.5,1.7,0.9,2.5,1.4c0.6,0.4,0.9-0.1,1.3-0.4c2.5-2.1,4.9-4.2,7.4-6.2c1.9-1.6,3.7-3.3,5.8-4.5c3.3-1.9,7.1-1.1,9.6,1.5
			c0.8,0.8,0.8,1.6,0,2.5c-2.1,2.2-4.3,4.4-6.4,6.6c-4.7,4.7-9.4,9.4-14.1,14.1c-2.1,2.1-4.3,4.3-6.5,6.4c-1.4,1.4-3.1,2-5.1,2
			c-7,0-14,0-21.1,0c-2,0-3.7,0.6-5.1,2c-0.6,0.6-0.7,1.2-0.3,2c1.1,2.3,0.9,3.8-0.9,5.6c-2.7,2.7-5.4,5.3-8.1,8
			c0,0-0.1,0.1-0.1,0.2c-0.5,0.5-1.2,0.7-1.8,0.2c-0.6-0.6-0.3-1.2,0.2-1.8c2-2,4-4.1,6.1-6.1c0.8-0.8,1.6-1.6,2.4-2.4
			c1.1-1.1,1.1-2.1,0-3.1c-5-5-10.1-10.1-15.1-15.1c-1.1-1.1-2.2-2.2-3.3-3.3c-1.1-1-2.2-1-3.3,0.1c-2.7,2.7-5.4,5.4-8.2,8.1
			c-0.1,0.1-0.3,0.3-0.4,0.4c-0.5,0.4-1.2,0.5-1.6-0.1c-0.2-0.4-0.1-1.2,0.1-1.5c1.2-1.4,2.5-2.6,3.8-4c1.5-1.5,3-3,4.5-4.5
			c2.1-2.2,4.7-2.2,6.8,0c5.3,5.3,10.5,10.5,15.8,15.8c0.6,0.6,1.1,0.6,1.7-0.1c1.7-1.9,3.8-2.8,6.4-2.8c6.5,0,13-0.1,19.5,0.1
			c2.9,0.1,5.1-0.8,7.1-2.9c6.1-6.3,12.3-12.4,18.5-18.6c1.9-1.9,3.8-3.8,5.7-5.7c0.8-0.8,0.8-1.3-0.2-1.8c-2-1-4.1-1.1-5.9,0.3
			c-2.8,2.1-5.5,4.4-8.2,6.7c-1.3,1.1-2.6,2.3-4,3.3c-0.8,0.6-1.2,1.2-0.8,2.3c0.3,0.6,0.3,1.4,0.5,2c0.3,2.1-0.6,3.3-2.8,3.3
			c-1.6,0-3.1,0.1-4.7,0c-4,0-8,0-11.9-0.1c-0.1,0-0.3,0-0.4,0c-0.7,0-1.3-0.4-1.2-1c0.1-0.4,0.7-0.9,1.1-1c0.7-0.2,1.4-0.1,2.1-0.1
			c4.7,0,9.4,0,14.1,0c1.3,0,1.6-0.3,1.3-1.6c-0.6-2.6-2.9-4.6-5.7-4.7c-2.7,0-5.4-0.1-8,0c-2.6,0.1-5-0.5-7.3-1.7
			c-3-1.6-6.3-2-9.6-1.8c-3.3,0.2-6.5,0.8-9.5,2.1c-3.2,1.3-6,3.1-8.5,5.5c-0.3,0.3-0.5,0.5-0.8,0.7c-0.5,0.4-1.1,0.6-1.5,0.1
			c-0.5-0.5-0.5-1.3,0.1-1.7c1.9-1.6,3.8-3.2,5.9-4.6c1.8-1.1,3.9-1.9,5.8-2.8c0.9-0.4,1.1-0.8,0.6-1.7c-2.5-5-3.3-10.2-2.6-15.7
			c1-7.7,4.6-14.1,10.8-18.9c3.5-2.7,7.5-4.5,11.9-5.4c5.3-1.1,10.4-0.7,15.4,1.2c6.3,2.3,11.2,6.4,14.6,12.2
			c2.2,3.7,3.5,7.8,3.9,12.2c0,0.3,0.2,0.6,0.4,1c0.3-0.2,0.6-0.3,0.9-0.5c0.5-0.4,0.9-0.9,1.4-1.1c0.4-0.1,1,0,1.3,0.3
			c0.2,0.2,0.1,0.9-0.1,1.2c-1.3,1.5-2.7,2.9-4.2,4.3c-0.6,0.5-1.3,0.5-1.9-0.1c-1.3-1.3-2.6-2.6-3.9-3.9c-0.5-0.5-0.7-1-0.2-1.6
			c0.5-0.6,1.2-0.4,1.7,0c0.3,0.3,0.6,0.6,0.9,0.9C85.7,34.8,86,35,86.6,35.4z"/>
	</g>
	<path class="st0" d="M30.4,80.7c0.7,0,1.4,0.6,1.5,1.4c0,0.6-0.7,1.4-1.4,1.4c-0.7,0-1.3-0.6-1.4-1.3
		C29.1,81.3,29.6,80.7,30.4,80.7z"/>
</g>
</svg>
