<svg width="98" height="98" viewBox="0 0 98 98" fill="none" xmlns="http://www.w3.org/2000/svg">
<path d="M3.98932 13.5909C4.06707 13.2022 4.12538 12.8134 4.20313 12.4247C4.96117 9.23703 7.04093 7.27389 10.0537 6.18542C11.492 5.66062 12.9692 5.44681 14.4853 5.44681C24.7481 5.44681 35.0303 5.44681 45.293 5.44681C55.2448 5.44681 65.1966 5.44681 75.1483 5.44681C77.714 5.44681 80.2991 5.42737 82.8648 5.44681C88.0156 5.46625 92.1169 8.71223 93.2442 13.6687C93.3803 14.2518 93.458 14.8349 93.4774 15.4374C93.5358 16.8369 93.5746 18.2364 93.5746 19.6358C93.5746 33.4556 93.5552 47.2753 93.5358 61.095C93.5358 62.7083 93.5941 64.3216 93.2053 65.9154C92.1363 70.3665 88.2294 73.6902 83.6617 73.8846C81.2321 73.9818 78.783 73.9429 76.3534 73.9429C69.1617 73.9624 61.97 73.9624 54.7783 73.9624C54.3701 73.9624 54.0786 74.079 53.8064 74.39C47.8393 80.882 41.8527 87.3739 35.8661 93.8465C35.7689 93.9631 35.6717 94.0797 35.5551 94.2158C34.1945 92.9718 32.8922 91.7667 31.5705 90.5227C31.8037 90.27 32.0175 90.0368 32.2313 89.8036C38.6844 82.8062 45.1181 75.8283 51.5712 68.8504C51.7267 68.6949 51.9988 68.5783 52.2321 68.5783C58.0826 68.5589 63.9331 68.5394 69.7837 68.5394C74.2542 68.5394 78.7442 68.5589 83.2147 68.5006C85.897 68.4617 88.0351 66.3042 88.074 63.6024C88.1128 61.1922 88.0934 58.782 88.1128 56.3718C88.1323 44.5347 88.1517 32.6975 88.1517 20.8604C88.1517 19.2082 88.1128 17.5366 88.074 15.8845C87.9962 13.0661 85.8581 10.9281 83.0398 10.9086C77.6363 10.8892 72.2522 10.9086 66.8487 10.9086C49.4526 10.9086 32.037 10.9086 14.6408 10.9281C13.4163 10.9281 12.2501 11.1224 11.1421 11.6667C10.0148 12.2303 9.43169 13.1439 9.37338 14.3878C9.37338 14.5822 9.37338 14.7766 9.37338 14.9904C9.39282 31.0454 9.41225 47.1198 9.43169 63.1748C9.43169 66.1681 11.6864 68.5006 14.6991 68.52C22.0075 68.5589 29.3352 68.5394 36.6435 68.5394C36.8379 68.5394 37.0323 68.5394 37.285 68.5394C37.285 70.3471 37.285 72.1158 37.285 73.9235C37.11 73.9235 36.9545 73.9429 36.799 73.9429C29.5296 73.9429 22.2601 73.9429 14.9907 73.9429C9.78156 73.9429 5.50541 70.6581 4.31975 65.7794C4.16425 65.1768 4.10594 64.5548 3.98932 63.9523C3.98932 47.1198 3.98932 30.3651 3.98932 13.5909Z" fill="white"/>
<path d="M74.5069 25.0977C74.1765 26.9442 73.8655 28.5769 73.5739 30.229C73.5156 30.54 73.3407 30.5595 73.1074 30.5983C70.5612 31.0454 68.1704 31.9201 66.1295 33.5722C63.4278 35.7492 61.97 38.6453 61.4258 42.0273C61.4258 42.0856 61.4258 42.1439 61.4258 42.2606C61.6007 42.2606 61.7756 42.2606 61.9311 42.2606C63.3695 42.2606 64.8272 42.28 66.2656 42.2606C66.6349 42.2606 66.8487 42.3772 67.0625 42.6687C67.7039 43.5434 68.0538 44.5153 68.1315 45.5843C68.3454 48.908 67.4124 51.8041 64.594 53.7673C61.8728 55.6721 58.8406 55.9442 55.8085 54.6225C53.0095 53.398 51.785 51.0072 51.7461 48.0139C51.6684 43.213 53.2622 38.9563 56.2166 35.2244C59.7347 30.7927 64.1664 27.7217 69.6088 26.1861C71.1832 25.7391 72.7964 25.4864 74.5069 25.0977Z" fill="white"/>
<path d="M51.9794 25.2337C51.6489 26.9442 51.3185 28.6352 50.9686 30.3068C50.9492 30.4234 50.6965 30.5789 50.541 30.5983C48.1697 31.026 45.9539 31.784 43.9907 33.2029C40.978 35.3799 39.3453 38.3926 38.7622 42.0273C38.7622 42.0856 38.7622 42.1439 38.7622 42.28C38.9371 42.28 39.0926 42.28 39.2481 42.28C40.7642 42.28 42.2608 42.2606 43.7769 42.2994C43.9713 42.2994 44.2434 42.4355 44.36 42.591C45.3319 43.835 45.5651 45.2927 45.4874 46.8088C45.3708 49.5495 44.3989 51.8819 42.222 53.6312C40.4338 55.0501 38.354 55.4778 36.1382 55.3417C34.4666 55.2251 32.9311 54.778 31.6288 53.709C29.8211 52.2512 29.1214 50.2686 29.0825 48.0334C29.0242 43.349 30.5209 39.1701 33.3976 35.5159C37.0517 30.851 41.736 27.6828 47.47 26.1278C48.8694 25.7391 50.3272 25.5447 51.7656 25.2531C51.8044 25.2143 51.8822 25.2337 51.9794 25.2337Z" fill="white"/>
</svg>
