<?xml version="1.0" encoding="utf-8"?>
<!-- Generator: Adobe Illustrator 24.1.2, SVG Export Plug-In . SVG Version: 6.00 Build 0)  -->
<svg version="1.1" id="Camada_1" xmlns="http://www.w3.org/2000/svg" xmlns:xlink="http://www.w3.org/1999/xlink" x="0px" y="0px"
	 viewBox="0 0 1080 520" style="enable-background:new 0 0 1080 520;" xml:space="preserve">
<style type="text/css">
	.st0{filter:url(#Adobe_OpacityMaskFilter);}
	.st1{mask:url(#Preenchimento_de_Cor_1_xA0_Imagem_1_);}
	.st2{fill:#FFFFFF;}
</style>
<g id="Plano_de_Fundo_xA0_Imagem_1_">
</g>
<defs>
	<filter id="Adobe_OpacityMaskFilter" filterUnits="userSpaceOnUse">
		<feColorMatrix  type="matrix" values="1 0 0 0 0  0 1 0 0 0  0 0 1 0 0  0 0 0 1 0"/>
	</filter>
</defs>
<mask maskUnits="userSpaceOnUse" id="Preenchimento_de_Cor_1_xA0_Imagem_1_">
	<g id="Preenchimento_de_Cor_1Máscara_de_opacidade_1_" class="st0">
		
			<image style="overflow:visible;enable-background:new    ;" width="1080" height="520" id="Preenchimento_de_Cor_1Máscara_de_opacidade_4_" xlink:href="A9CE4CFF.jpg" >
		</image>
	</g>
</mask>
<g id="Preenchimento_de_Cor_1_xA0_Imagem_2_" class="st1">
</g>
<g>
	<g>
		<g>
			<path class="st2" d="M202.2,327.4c10.3,0,20.7,6.5,20.7,17.7c0,14.8-13.9,21.3-3.5,24.8c3.3,1.2,6.8,1.8,11.2,1.8
				c26,0,26-43.5,26-55.6V162.7h4.1c21.9,0,36.7,14.8,36.7,36.7v116.8c0,38.7-25.7,63.9-65.9,63.9c-18.9,0-32.2-4.7-40.8-11.5
				l-2.7-2.4l0.3-0.3c-4.4-3.8-7.1-9.2-7.1-16C181.2,334.2,191.8,327.4,202.2,327.4z"/>
			<path class="st2" d="M326.1,221.8c22.8,0,38.1,15.4,38.1,38.1v59.4c0,15.1-1.5,46.1,21.3,46.1c13,0,21.3-10.1,25.7-22.8
				c-0.3-2.7-0.6-5.6-0.6-8.6V221.8h2.1c22.8,0,38.1,15.4,38.1,38.1v112.4h-2.4c-14.2,0-25.4-5.9-31.9-16.3
				c-6.5,10.6-16.6,18.3-31,18.3c-57.4,0-61.5-40.8-61.5-61.8v-90.8H326.1z"/>
			<path class="st2" d="M474.2,297.5c0-50,29-78.9,57.4-78.9c9.8,0,19.5,3.5,27.8,10.6v-83.4h2.4c22.8,0,37.6,15.1,37.6,37.6v188.9
				h-2.4c-14.2,0-25.4-5.9-31.6-16c-9.8,11.8-22.5,17.7-35.2,17.7C502.3,374.1,474.2,346.9,474.2,297.5z M543.7,359
				c6.2,0,12.4-4.1,17.2-11.8c-0.9-3.8-1.5-8-1.5-12.4v-91.4c-4.4-6.2-9.8-9.2-14.8-9.2c-14.2,0-28.7,21.9-28.7,63.3
				C515.9,338.6,529.8,359,543.7,359z"/>
			<path class="st2" d="M628,334.8v-113h2.4c22.5,0,37.6,15.1,37.6,37.6v113h-2.7C642.7,372.3,628,357.2,628,334.8z"/>
			<path class="st2" d="M766,221.5v8h-21.3V349c0,7.4,4.7,10.6,9.8,10.6c5.9,0,11.8-3.8,11.8-10.3h0.6c4.1,0,6.8,3,5.6,6.5
				c-3.8,11.5-17.4,17.7-31.6,17.7c-17.7,0-36.1-9.8-36.1-30.5V229.5h-20.1v-8h20.1v-41.1c24,0,39.9,16.3,39.9,40.2v0.9H766z"/>
			<path class="st2" d="M856.8,374.1c-97,0-97.3-154.3,0.3-154.3c16.3,0,26.3,4.7,37.3,16.9c23.1,26.3,1.8,68-41.7,80.7l-20.7,6.2
				c5.6,18.3,17.1,31.9,36.4,31.9c13.9,0,26.9-7.1,29.6-24h0.9c4.7,0,7.4,3.3,6.5,7.4C900.9,355.2,884,374.1,856.8,374.1z
				 M832.6,314.1c24-11.2,39.6-35.5,37.6-58.3c-1.5-15.1-5.3-27.8-13.3-27.8c-21.9,0-34.6,50-26.9,87.5L832.6,314.1z"/>
		</g>
	</g>
	<path class="st2" d="M683.4,160.2c-0.1,3.7-1.4,7.7-3.7,11.4c-1.7,2.8-3.9,5.2-6.1,7.5c-4.6,4.9-9.7,9.1-15.2,13
		c-3.2,2.3-6.5,4.4-9.7,6.7c-0.5,0.4-1,0.4-1.5,0c-5.3-3.3-10.5-7-15.4-10.9c-4.5-3.6-8.7-7.6-12.6-11.8c-2.9-3.1-5-6.8-6-11
		c-0.9-3.8-0.6-7.5,0.8-11.1c1.7-4.7,4.8-8.2,9.3-10.3c2.9-1.4,6.1-1.9,9.3-1.7c1.9,0.1,3.6,0.7,5.3,1.4c2.4,0.9,4.7,2,6.7,3.6
		c0.9,0.7,1.8,1.5,2.6,2.2c1,0.8,1,0.8,2,0.1c1.7-1.3,3.5-2.6,5.3-3.9c1.7-1.2,3.4-2.3,5.4-2.9c4.8-1.3,9.5-1.1,14,1.3
		c2.7,1.5,4.9,3.6,6.5,6.2C682.3,153,683.4,156.1,683.4,160.2z"/>
</g>
</svg>
