<?xml version="1.0" encoding="utf-8"?>
<!-- Generator: Adobe Illustrator 19.0.0, SVG Export Plug-In . SVG Version: 6.00 Build 0)  -->
<svg version="1.1" id="Camada_1" xmlns="http://www.w3.org/2000/svg" xmlns:xlink="http://www.w3.org/1999/xlink" x="0px" y="0px"
	 viewBox="0 0 3000 3000" style="enable-background:new 0 0 3000 3000;" xml:space="preserve">
<style type="text/css">
	.st0{display: none; fill:#32a852;}
</style>
<rect id="XMLID_153_" x="-3.1" y="-37.5" class="st0" width="3035" height="3075"/>
<g id="XMLID_2_">
	<g id="XMLID_5_">
		<g id="XMLID_29_">
			<path id="XMLID_149_" d="M1747.4,1217.1c-0.8,0-1.7-0.1-2.6-0.4c-101.7-28.4-162.4-69.3-195.4-98.6
				c-36.4-32.4-48.7-58.2-49.2-59.2c-0.6-1.2-1.2-2.6-1.2-3.9V807c0-5.2,4.3-9.5,9.5-9.5s9.5,4.3,9.5,9.5v245.7
				c3,5.9,16,26.8,44.8,52.2c31.4,27.7,89.6,66.4,187,93.5c5.1,1.4,8.1,6.7,6.7,11.7C1755.3,1214.4,1751.5,1217.1,1747.4,1217.1z"/>
			<path id="XMLID_150_" d="M1747.4,1218.1c-1,0-1.9-0.1-2.8-0.4c-101.9-28.4-162.7-69.4-195.8-98.8c-37.2-33.1-49.4-59.3-49.5-59.6
				l-0.2-0.4c-0.5-1.2-1.2-2.5-1.2-3.9V807c0-5.8,4.7-10.5,10.5-10.5s10.5,4.7,10.5,10.5v245.5c4.5,8.7,18.8,29.1,44.4,51.7
				c31.3,27.6,89.1,66.1,186.6,93.3c2.7,0.8,5,2.5,6.4,5c1.4,2.5,1.8,5.3,1,8C1756.1,1215,1752.1,1218.1,1747.4,1218.1z
				 M1508.5,798.5c-4.7,0-8.5,3.8-8.5,8.5v248c0,1,0.5,2.1,1,3.1l0.2,0.4c0.1,0.3,12.1,26.1,49,58.9c32.9,29.3,93.4,70.1,195,98.4
				c0.8,0.2,1.5,0.3,2.3,0.3c3.8,0,7-2.5,8.1-6.2c1.3-4.5-1.4-9.2-6-10.5c-97.8-27.3-155.9-66.1-187.3-93.8
				c-26.1-23-40.6-43.8-45-52.5l-0.1-0.2V807C1517,802.3,1513.2,798.5,1508.5,798.5z"/>
		</g>
	</g>
	<g id="XMLID_6_">
		<g id="XMLID_28_">
			<path id="XMLID_26_" d="M1261.8,1232.5c-4.4,0-8.3-3.1-9.3-7.5c-1.1-5.1,2.2-10.2,7.3-11.3c0.6-0.1,32.8-7.3,78.6-31
				c42.4-21.9,105.4-63,165.1-133.8c3.4-4,9.4-4.5,13.4-1.1c4,3.4,4.5,9.4,1.1,13.4c-62,73.5-127.6,116.1-171.7,138.8
				c-48.1,24.8-81.2,32.1-82.6,32.3C1263.1,1232.4,1262.5,1232.5,1261.8,1232.5z"/>
			<path id="XMLID_27_" d="M1261.8,1233.5c-4.9,0-9.2-3.5-10.3-8.3c-1.2-5.7,2.4-11.3,8.1-12.5c0.3-0.1,32.8-7.4,78.3-30.9
				c42.3-21.9,105.2-62.9,164.8-133.6c3.7-4.4,10.4-5,14.8-1.3c4.4,3.7,5,10.4,1.3,14.8c-62.1,73.6-127.8,116.3-172,139.1
				c-48.2,24.9-81.5,32.1-82.9,32.4C1263.3,1233.4,1262.5,1233.5,1261.8,1233.5z M1510.8,1046.5c-2.4,0-4.8,1-6.5,3
				c-59.8,71-123,112.1-165.4,134.1c-45.7,23.7-77.5,30.8-78.8,31.1c-4.6,1-7.5,5.5-6.5,10.1c0.8,3.9,4.3,6.7,8.3,6.7
				c0.6,0,1.2-0.1,1.8-0.2c1.4-0.3,34.4-7.5,82.4-32.3c44-22.7,109.5-65.2,171.4-138.6c3-3.6,2.6-9-1-12
				C1514.7,1047.2,1512.7,1046.5,1510.8,1046.5z"/>
		</g>
	</g>
	<g id="XMLID_7_">
		<g id="XMLID_25_">
			<path id="XMLID_23_" d="M1281.4,1390.2c-49.2,0-79.1-17.5-96.1-33.7c-22.5-21.4-28.3-45.1-28.6-46.1c-0.1-0.2-0.1-0.5-0.1-0.7
				c-8.6-55.6-0.4-117.8,23.6-179.7c20.9-53.8,53.1-105.7,90.7-146c43.7-46.9,88.8-72,123.8-69.1c17.7,1.5,32.5,9.6,44.2,24.1
				c44.1,55.1,27.7,188.7,26.1,200.8c0.7,94.7-3.4,156.7-26.2,193c-22.4,35.7-60.1,46.7-126.2,55.4
				C1301.3,1389.5,1291,1390.2,1281.4,1390.2z M1175.2,1306.2c0.7,2.4,6.2,20.8,23.8,37.2c20,18.5,47.4,27.9,81.7,27.9
				c9.2,0,19-0.7,29.2-2c60.3-8,94.2-17.4,112.6-46.7c20.4-32.5,24-91.9,23.3-183.4c0-0.5,0-0.9,0.1-1.4c0.2-1.4,18.2-136.9-22-187
				c-8.4-10.4-18.5-16-30.9-17.1c-28.7-2.4-69.2,21.2-108.3,63.2C1217.7,1068.7,1157.8,1192.3,1175.2,1306.2z"/>
			<path id="XMLID_142_" d="M1281.4,1391.2L1281.4,1391.2c-50.4,0-80.5-18.5-96.8-34c-22.7-21.6-28.6-45.6-28.8-46.6
				c-0.1-0.3-0.1-0.5-0.2-0.8c-8.6-55.8-0.4-118.1,23.7-180.2c20.9-53.9,53.2-105.9,90.9-146.4c43.9-47.1,89.3-72.4,124.6-69.5
				c17.9,1.5,33,9.7,44.9,24.5c44.1,55,28.3,186.3,26.3,201.5c0.7,94.9-3.4,156.9-26.4,193.5c-22.6,36-60.5,47.1-127,55.9
				C1301.8,1390.4,1291.3,1391.2,1281.4,1391.2L1281.4,1391.2z M1389.1,915.4c-33.9,0-76.3,24.8-117.5,69
				c-37.5,40.3-69.7,92-90.5,145.7c-24,61.8-32.1,123.7-23.6,179.2c0,0.2,0.1,0.4,0.1,0.7c0.2,1,6,24.5,28.3,45.6
				c16.1,15.3,45.7,33.5,95.4,33.5c9.8,0,20.3-0.7,30.9-2.1c65.8-8.7,103.4-19.6,125.6-54.9c22.7-36.2,27.1-98,26.1-192.5v-0.1
				l0-0.1c2-14.7,17.8-145.6-25.9-200.1c-11.5-14.3-26.1-22.3-43.5-23.8C1392.8,915.5,1391,915.4,1389.1,915.4z M1280.7,1372
				C1280.7,1372,1280.7,1372,1280.7,1372c-34.6,0-62.3-9.4-82.4-28c-17.9-16.6-23.5-35.5-24.1-37.6l0-0.1
				c-17.4-114.3,42.6-238.1,109.8-310.3c39.3-42.2,80.1-65.9,109.1-63.5c12.7,1.1,23,6.8,31.6,17.4c40.4,50.4,22.4,186.4,22.2,187.8
				c-0.1,0.4-0.1,0.8-0.1,1.2c0.7,91.8-2.9,151.3-23.5,184c-18.6,29.6-52.8,39-113.4,47C1299.8,1371.4,1290,1372,1280.7,1372z
				 M1176.2,1306c0.6,2.3,6.2,20.4,23.5,36.5c19.7,18.3,47,27.5,81,27.5c0,0,0,0,0,0c9.2,0,18.9-0.6,29.1-1.9
				c60-7.9,93.7-17.2,111.9-46.2c20.3-32.3,23.9-91.5,23.2-182.9c0-0.5,0-1,0.1-1.5c0.2-1.4,18.1-136.5-21.8-186.3
				c-8.2-10.2-18.1-15.7-30.2-16.7c-28.4-2.4-68.6,21.1-107.5,62.8C1218.6,1069.2,1158.9,1192.4,1176.2,1306z"/>
		</g>
	</g>
	<g id="XMLID_4_">
		<g id="XMLID_22_">
			<path id="XMLID_133_" d="M1739,1390.2c-9.6,0-19.9-0.7-31.1-2.1c-66.1-8.7-103.8-19.7-126.2-55.4c-22.8-36.3-26.9-98.3-26.2-193
				c-1.6-12.1-18.1-145.7,26.1-200.8c11.6-14.5,26.5-22.7,44.2-24.1c35-2.9,80.1,22.3,123.8,69.1c37.6,40.4,69.8,92.2,90.7,146
				c24,61.9,32.2,124.1,23.6,179.7c0,0.2-0.1,0.5-0.1,0.7c-0.2,1-6,24.8-28.6,46.1C1818.1,1372.7,1788.2,1390.2,1739,1390.2z
				 M1631.3,933.4c-1.4,0-2.7,0.1-4.1,0.2c-12.4,1-22.5,6.6-30.9,17.1c-40.2,50.2-22.2,185.7-22,187c0.1,0.5,0.1,0.9,0.1,1.4
				c-0.7,91.6,2.9,151,23.3,183.4c18.4,29.3,52.4,38.7,112.6,46.7c10.2,1.4,20,2,29.2,2c34.8,0,62.4-9.6,82.4-28.6
				c17.2-16.4,22.4-34,23.1-36.4c17.4-113.9-42.4-237.5-109.6-309.5C1698.3,956.8,1659.7,933.4,1631.3,933.4z"/>
			<path id="XMLID_136_" d="M1739,1391c-9.9,0-20.4-0.6-31.2-2.1c-66.4-8.8-104.3-19.8-127-55.8c-23-36.6-27.1-98.6-26.4-193.5
				c-2-15.2-17.8-146.5,26.3-201.5c11.8-14.8,26.9-23,44.9-24.5c35.3-2.9,80.7,22.4,124.6,69.5c37.7,40.4,70,92.4,90.9,146.4
				c24.1,62.1,32.3,124.4,23.7,180.2c0,0.3-0.1,0.5-0.2,0.8c-0.2,1-6.1,25-28.8,46.6C1819.5,1372.6,1789.4,1391,1739,1391
				C1739,1391,1739,1391,1739,1391z M1631.2,915.4c-1.9,0-3.7,0.1-5.5,0.2c-17.4,1.4-32,9.4-43.5,23.8
				c-43.6,54.5-28,185.3-26.1,200.1l-0.2,0.1v0.1c0,94.5,3.6,156.3,26.3,192.5c22.2,35.4,59.8,46.2,125.6,54.9c10.7,1.4,21.2,2,31,2
				c0,0,0,0,0,0c49.8,0,79.4-18.1,95.4-33.4c22.3-21.2,28-44.6,28.3-45.6c0.1-0.2,0.1-0.4,0.1-0.6c8.6-55.5,0.4-117.4-23.6-179.2
				c-20.8-53.7-53-105.5-90.5-145.7C1707.5,940.3,1665.1,915.4,1631.2,915.4z M1739.7,1372C1739.7,1372,1739.7,1372,1739.7,1372
				c-9.3,0-19.1-0.6-29.4-1.9c-60.6-8-94.7-17.4-113.4-47.1c-20.5-32.7-24.2-92.2-23.5-184c0-0.4,0-0.8-0.1-1.2
				c-0.2-1.4-18.3-137.2,22.2-187.8c8.6-10.7,18.9-16.4,31.6-17.4c1.3-0.1,2.7-0.2,4.2-0.2c28.6,0,67.8,23.8,105,63.6
				c67.2,72.1,127.3,196,109.8,310.3l0,0.1c-0.5,2-5.8,20.1-23.4,36.8C1802.6,1362.4,1774.6,1372,1739.7,1372z M1631.3,934.4
				c-1.4,0-2.7,0.1-4,0.2c-12.1,1-22,6.5-30.2,16.7c-40,49.9-21.9,184.9-21.8,186.3c0.1,0.5,0.1,1,0.1,1.5
				c-0.7,91.4,2.9,150.6,23.2,182.9c18.2,29,52,38.2,111.9,46.1c10.1,1.3,19.9,1.9,29.1,1.9c0,0,0,0,0,0c34.5,0,61.9-9.4,81.7-28.2
				c17-16.1,22.2-33.7,22.8-35.9c17.3-113.6-42.4-236.8-109.3-308.5C1698.1,958,1659.4,934.4,1631.3,934.4z"/>
		</g>
	</g>
	<g id="XMLID_9_">
		<g id="XMLID_21_">
			<path id="XMLID_129_" d="M1412.8,1156.8c-5,0-9.2-3.9-9.5-9c0-0.5-2.5-36.5-30.1-58.5c-20.4-16.3-49.8-21.3-87.2-14.9
				c-5.2,0.9-10.1-2.6-11-7.8c-0.9-5.2,2.6-10.1,7.8-11c43.1-7.4,77.5-1,102.4,18.9c34.3,27.5,37,70.4,37.1,72.2
				c0.3,5.2-3.8,9.7-9,10C1413.1,1156.8,1413,1156.8,1412.8,1156.8z"/>
			<path id="XMLID_130_" d="M1412.8,1157.8c-5.6,0-10.2-4.4-10.5-9.9c0-0.4-2.5-36.1-29.7-57.8c-20.2-16.1-49.3-21-86.4-14.7
				c-5.7,1-11.1-2.9-12.1-8.6c-0.5-2.8,0.2-5.5,1.8-7.8c1.6-2.3,4-3.8,6.8-4.3c43.4-7.4,78.1-1,103.2,19.1
				c34.7,27.8,37.3,71.1,37.4,72.9c0.1,2.8-0.8,5.5-2.7,7.6c-1.9,2.1-4.5,3.3-7.3,3.5C1413.2,1157.8,1413,1157.8,1412.8,1157.8z
				 M1315.6,1070.8c23.8,0,43.3,5.9,58.2,17.8c27.9,22.2,30.5,58.8,30.5,59.2c0.3,4.7,4.2,8.3,8.9,8c2.3-0.1,4.4-1.1,5.9-2.8
				c1.5-1.7,2.3-3.9,2.2-6.1c-0.1-1.8-2.7-44.3-36.7-71.5c-24.6-19.7-58.8-26-101.6-18.7c-2.2,0.4-4.2,1.6-5.5,3.5s-1.8,4.1-1.4,6.3
				c0.8,4.6,5.2,7.7,9.8,6.9C1296.4,1071.7,1306.3,1070.8,1315.6,1070.8z"/>
		</g>
	</g>
	<g id="XMLID_10_">
		<g id="XMLID_20_">
			<path id="XMLID_125_" d="M1321.9,1156.8c-4.2,0-8-2.7-9.1-6.9c-0.3-1.1-7.5-27.7,6.6-51.8c9.2-15.9,25.1-26.7,47.1-32.3
				c5.1-1.3,10.3,1.8,11.5,6.9c1.3,5.1-1.8,10.3-6.9,11.5c-16.8,4.3-28.7,12.1-35.3,23.3c-10,17.1-4.8,37.2-4.8,37.4
				c1.4,5.1-1.6,10.3-6.7,11.6C1323.6,1156.7,1322.7,1156.8,1321.9,1156.8z"/>
			<path id="XMLID_126_" d="M1321.9,1157.8c-4.7,0-8.8-3.2-10.1-7.7c-0.3-1.1-7.6-28.1,6.7-52.6c9.4-16.1,25.4-27.1,47.8-32.8
				c5.6-1.4,11.3,2,12.8,7.6c1.4,5.6-2,11.3-7.6,12.8c-16.6,4.2-28.2,11.9-34.7,22.8c-9.8,16.7-4.7,36.4-4.7,36.6
				c1.5,5.6-1.8,11.4-7.4,12.9C1323.8,1157.7,1322.8,1157.8,1321.9,1157.8z M1368.8,1066.5c-0.7,0-1.4,0.1-2.1,0.3
				c-21.8,5.5-37.5,16.2-46.5,31.9c-13.8,23.8-6.8,49.9-6.5,51c1,3.7,4.4,6.2,8.2,6.2c0.8,0,1.5-0.1,2.3-0.3c4.5-1.2,7.2-5.9,6-10.4
				c-0.1-0.2-5.4-20.7,4.9-38.1c6.7-11.4,18.8-19.4,35.9-23.8c4.5-1.1,7.3-5.8,6.2-10.3C1376.1,1069,1372.6,1066.5,1368.8,1066.5z"
				/>
		</g>
	</g>
	<g id="XMLID_11_">
		<g id="XMLID_19_">
			<path id="XMLID_121_" d="M1303.9,1268.1c-2.8,0-5.7-1.3-7.5-3.7c-3.2-4.2-2.4-10.1,1.7-13.3c27-20.9,19.2-47.8,18.9-48.9
				c-1.6-5,1.2-10.3,6.1-11.9c5-1.6,10.4,1.2,12,6.2c0.5,1.6,12.5,40.4-25.4,69.7C1308,1267.5,1305.9,1268.1,1303.9,1268.1z"/>
			<path id="XMLID_122_" d="M1303.9,1269.1c-3.3,0-6.3-1.5-8.3-4.1c-1.7-2.2-2.5-5-2.1-7.8c0.4-2.8,1.8-5.3,4-7
				c26.5-20.5,18.9-46.7,18.5-47.8c-0.9-2.7-0.6-5.5,0.7-8c1.3-2.5,3.5-4.3,6.1-5.2c2.7-0.9,5.5-0.6,8,0.7c2.5,1.3,4.3,3.5,5.2,6.1
				c0.5,1.7,12.7,41.1-25.7,70.8C1308.5,1268.4,1306.3,1269.1,1303.9,1269.1z M1326,1190.8c-0.9,0-1.7,0.1-2.6,0.4
				c-2.2,0.7-3.9,2.2-5,4.2c-1,2-1.2,4.3-0.5,6.5c0.4,1.2,8.4,28.7-19.2,50c-1.8,1.4-2.9,3.4-3.2,5.6c-0.3,2.3,0.3,4.5,1.7,6.3
				c1.6,2.1,4.1,3.3,6.7,3.3c1.9,0,3.7-0.6,5.2-1.8c37.3-28.8,25.6-67,25-68.6c-0.7-2.2-2.2-3.9-4.2-5
				C1328.7,1191.2,1327.4,1190.8,1326,1190.8z"/>
		</g>
	</g>
	<g id="XMLID_12_">
		<g id="XMLID_18_">
			<path id="XMLID_117_" d="M1360.1,1249c-0.3-0.6-7-13.8-33.7-10.6c-5.2,0.6-9.9-3.1-10.5-8.3c-0.6-5.2,3.1-9.9,8.3-10.5
				c41.5-4.9,52.9,20.8,53.3,21.9l-17.5,7.4C1360.1,1248.8,1360.1,1248.9,1360.1,1249z"/>
			<path id="XMLID_118_" d="M1360.4,1249.7l-0.3-0.7l-0.9,0.4c0,0,0,0,0,0l0,0c-0.3-0.5-6.7-13.1-32.7-10c-5.7,0.7-11-3.5-11.7-9.2
				c-0.7-5.7,3.4-11,9.2-11.7c42.2-5,53.9,21.3,54.4,22.5l0.4,0.9L1360.4,1249.7z M1334.3,1236.9c17.4,0,24.2,7.8,26.2,10.6
				l15.8-6.7c-2.4-4.6-15-24.7-51.9-20.3c-4.7,0.5-8,4.8-7.4,9.4c0.5,4.7,4.8,8,9.4,7.4C1329.2,1237.1,1331.8,1236.9,1334.3,1236.9z
				"/>
		</g>
	</g>
	<g id="XMLID_13_">
		<g id="XMLID_17_">
			<path id="XMLID_113_" d="M1653.4,1246.3c-3.6,0-7.1-2.1-8.7-5.6c-1.5-3.3-14.1-32.7-5.5-54.5c3.4-8.6,9.8-15,18.4-18.6
				c4.8-2,10.4,0.3,12.4,5.2c2,4.8-0.3,10.4-5.2,12.4c-3.9,1.6-6.5,4.2-8,8c-4.9,12.2,2.1,32.9,5.1,39.8c2.1,4.8,0,10.4-4.8,12.5
				C1656,1246,1654.7,1246.3,1653.4,1246.3z"/>
			<path id="XMLID_114_" d="M1653.4,1247.3c-4.1,0-7.9-2.4-9.6-6.2c-1.5-3.3-14.3-33.1-5.5-55.3c3.5-8.8,10.1-15.4,19-19.1
				c2.6-1.1,5.4-1.1,8,0c2.6,1.1,4.6,3.1,5.7,5.7c1.1,2.6,1.1,5.4,0,8c-1.1,2.6-3.1,4.6-5.7,5.7c-3.7,1.5-6.1,3.9-7.5,7.4
				c-4.8,11.9,2.1,32.2,5.1,39c2.4,5.3,0,11.5-5.3,13.9C1656.3,1247,1654.9,1247.3,1653.4,1247.3z M1661.3,1167.8
				c-1.1,0-2.2,0.2-3.2,0.6c-8.4,3.5-14.6,9.7-17.9,18c-8.5,21.5,4,50.5,5.4,53.8c1.4,3,4.4,5,7.8,5c1.2,0,2.4-0.3,3.5-0.7
				c4.3-1.9,6.2-6.9,4.3-11.2c-3.1-7-10.2-28-5.1-40.6c1.6-4.1,4.4-6.8,8.6-8.6c2.1-0.9,3.7-2.5,4.6-4.6c0.9-2.1,0.9-4.4,0-6.5
				c-0.9-2.1-2.5-3.7-4.6-4.6C1663.5,1168.1,1662.4,1167.8,1661.3,1167.8z"/>
		</g>
	</g>
	<g id="XMLID_14_">
		<g id="XMLID_16_">
			<path id="XMLID_109_" d="M1614.6,1161.8c-3.4,0-6.7-1.9-8.4-5.1c-0.3-0.6-8.2-16-10.1-36.8c-2.6-28.2,6.9-53.1,27.4-71.9
				c3.9-3.5,9.9-3.3,13.4,0.6c3.5,3.9,3.3,9.9-0.6,13.4c-38.7,35.5-13.5,85.4-13.2,85.9c2.4,4.7,0.6,10.4-4.1,12.8
				C1617.6,1161.5,1616.1,1161.8,1614.6,1161.8z"/>
			<path id="XMLID_110_" d="M1614.6,1162.8c-3.9,0-7.5-2.2-9.3-5.7c-0.3-0.7-8.3-16.2-10.2-37.2c-2.6-28.5,7-53.7,27.7-72.7
				c4.3-3.9,10.9-3.6,14.8,0.6c1.9,2.1,2.9,4.7,2.8,7.6c-0.1,2.8-1.3,5.4-3.4,7.3c-38.1,35-13.3,84.2-13,84.7
				c2.7,5.1,0.7,11.5-4.5,14.2C1618,1162.4,1616.3,1162.8,1614.6,1162.8z M1629.8,1046.5c-2.1,0-4.1,0.7-5.7,2.2
				c-20.2,18.6-29.6,43.1-27,71c1.9,20.6,9.7,35.8,10,36.5c1.5,2.8,4.4,4.6,7.6,4.6c1.4,0,2.7-0.3,3.9-1c4.2-2.2,5.8-7.3,3.6-11.5
				c-0.3-0.5-25.9-51.1,13.4-87.1c3.5-3.2,3.7-8.6,0.5-12C1634.4,1047.4,1632.1,1046.5,1629.8,1046.5z"/>
		</g>
	</g>
	<g id="XMLID_15_">
		<g id="XMLID_8_">
			<path id="XMLID_105_" d="M1658.3,1134.4c-22.7,0-42.9-8.1-59.4-23.9c-3.8-3.6-3.9-9.6-0.3-13.4c3.6-3.8,9.6-3.9,13.4-0.3
				c39,37.5,91.7,6.5,92.2,6.2c4.5-2.7,10.3-1.2,13,3.3c2.7,4.5,1.2,10.3-3.3,13c-0.7,0.4-16.5,9.8-38.4,13.6
				C1669.8,1133.9,1663.9,1134.4,1658.3,1134.4z"/>
			<path id="XMLID_106_" d="M1658.3,1135.4c-22.8,0-43.6-8.4-60.1-24.2c-2-1.9-3.2-4.6-3.2-7.4c-0.1-2.8,1-5.5,2.9-7.5
				c1.9-2,4.6-3.2,7.4-3.2c2.8,0,5.5,1,7.5,2.9c38.4,36.9,90.5,6.4,91,6.1c5-3,11.4-1.4,14.4,3.6c1.4,2.4,1.9,5.2,1.2,7.9
				c-0.7,2.7-2.4,5-4.8,6.5c-0.7,0.4-16.7,9.9-38.7,13.7C1669.9,1134.9,1664,1135.4,1658.3,1135.4z M1605.5,1095.2
				c-0.1,0-0.1,0-0.2,0c-2.3,0-4.4,1-6,2.6s-2.4,3.8-2.4,6.1c0,2.3,1,4.4,2.6,6c16.3,15.7,36.1,23.6,58.7,23.6
				c5.6,0,11.4-0.5,17.3-1.5c21.7-3.7,37.4-13.1,38-13.5c1.9-1.2,3.3-3,3.9-5.2c0.5-2.2,0.2-4.5-1-6.4c-2.4-4-7.6-5.3-11.7-2.9
				c-0.3,0.2-21.2,12.4-46.5,12.4c-15.3,0-32.1-4.5-47-18.8C1609.8,1096,1607.7,1095.2,1605.5,1095.2z"/>
		</g>
	</g>
</g>
<g id="XMLID_1_">
	<g id="XMLID_30_">
		<path id="XMLID_32_" d="M523.3,1882.9c-10.4,0-19.3-1.1-27-3.4c-4.4-1.3-7.4-5.4-7.4-9.9l0,0c0-6.4,5.8-11.3,12.1-10.2
			c7.5,1.3,14.8,1.9,21.8,1.9c36.7,0,55-20,55-60v-324.2c0-5.7,4.6-10.4,10.4-10.4h2.5c5.7,0,10.4,4.6,10.4,10.4v322
			C601,1855,575.1,1882.9,523.3,1882.9z"/>
		<path id="XMLID_34_" d="M645.6,1552c6.2,0,11.1,5,11.1,11.1V1712c0,24.9,5.2,42.9,15.7,54.2c10.5,11.3,26.7,16.9,48.6,16.9
			c29.4,0,51-7.4,64.9-22.3c13.9-14.8,20.8-39,20.8-72.5v-125.2c0-6.2,5-11.1,11.1-11.1h0c6.2,0,11.1,5,11.1,11.1v235.9h-19.1
			l-4.1-34.1h-1.4c-16.1,25.8-44.6,38.6-85.7,38.6c-56.2,0-84.3-30.1-84.3-90.2v-150.2C634.5,1557,639.4,1552,645.6,1552L645.6,1552
			z"/>
	</g>
	<g id="XMLID_3_">
		<path id="XMLID_49_" d="M1020.9,1789.7l-115.5-286.2h-1.7c1.2,17.9,1.7,36.3,1.7,55.1v237.6h-21.2v-296.5
			c0-11.3,9.2-20.4,20.4-20.4l0,0c8.3,0,15.9,5.1,19,12.8l107.2,266h1.3l107.3-266.3c3-7.5,10.4-12.5,18.5-12.5l0,0
			c11,0,19.9,8.9,19.9,19.9v297.1h-22.3V1556c0-16.8,0.9-34.1,2.6-52h-1.7l-116,285.7c-1.6,3.9-5.4,6.5-9.7,6.5l0,0
			C1026.3,1796.2,1022.5,1793.6,1020.9,1789.7z"/>
		<path id="XMLID_51_" d="M1316.1,1800.6c-34.3,0-61-10.5-80.1-31.7c-19.2-21.1-28.7-50.7-28.7-88.7c0-37.6,9.2-67.7,27.8-90.3
			c18.5-22.6,43.4-33.9,74.8-33.9c27.8,0,49.7,9.7,65.7,29.1c16,19.4,24.1,45.7,24.1,78.9l0,0c0,9.6-7.8,17.3-17.3,17.3h-152.4
			c0.3,32.4,7.8,57.1,22.7,74.2c14.8,17.1,36,25.6,63.6,25.6c13.4,0,25.3-0.9,35.4-2.8c7.4-1.4,16.1-3.8,26.3-7.5
			c6-2.1,12.4,2.3,12.4,8.7l0,0c0,3.8-2.3,7.2-5.8,8.6c-11.1,4.5-21.4,7.6-31,9.4C1342.1,1799.5,1329.7,1800.6,1316.1,1800.6z
			 M1309.8,1575.1c-22.7,0-40.9,7.5-54.6,22.4c-13.7,15-21.8,36.5-24.1,64.7h145.7c0-27.3-5.9-48.7-17.8-64.1
			C1347.2,1582.8,1330.8,1575.1,1309.8,1575.1z"/>
		<path id="XMLID_54_" d="M1526.2,1556c17.1,0,31.8,3.1,44.2,9.3c12.4,6.2,23.6,16.8,33.4,31.9h1.3c-0.9-18.2-1.3-36.1-1.3-53.6
			v-43.1c0-5.9,4.8-10.6,10.6-10.6l0,0c5.9,0,10.6,4.8,10.6,10.6v295.7H1611l-5.4-36h-1.7c-17.9,26.9-43.7,40.3-77.2,40.3
			c-32.5,0-57.4-10.1-74.6-30.4c-17.2-20.2-25.8-49.7-25.8-88.5c0-40.8,8.5-71.9,25.6-93.4C1468.9,1566.8,1493.7,1556,1526.2,1556z
			 M1526.2,1575.5c-25.7,0-45.1,9-58,27.1c-12.9,18.1-19.4,44.3-19.4,78.7c0,66.8,25.9,100.2,77.8,100.2c26.6,0,46.1-7.7,58.5-23.2
			c12.4-15.5,18.6-41,18.6-76.5v-3.7c0-36.4-6.1-62.6-18.3-78.6C1573.3,1583.5,1553.5,1575.5,1526.2,1575.5z"/>
		<path id="XMLID_57_" d="M1767,1800.6c-34.3,0-61-10.5-80.1-31.7c-19.2-21.1-28.7-50.7-28.7-88.7c0-37.6,9.2-67.7,27.8-90.3
			c18.5-22.6,43.4-33.9,74.8-33.9c27.8,0,49.7,9.7,65.7,29.1c16,19.4,24.1,45.7,24.1,78.9v17.3h-169.8c0.3,32.4,7.8,57.1,22.7,74.2
			c14.8,17.1,36,25.6,63.6,25.6c13.4,0,25.3-0.9,35.4-2.8c7.4-1.4,16.1-3.8,26.3-7.5c6-2.1,12.4,2.3,12.4,8.7l0,0
			c0,3.8-2.3,7.2-5.8,8.6c-11.1,4.5-21.4,7.6-31,9.4C1793.1,1799.5,1780.6,1800.6,1767,1800.6z M1760.8,1575.1
			c-22.7,0-40.9,7.5-54.6,22.4c-13.7,15-21.8,36.5-24.1,64.7h145.7c0-27.3-5.9-48.7-17.8-64.1
			C1798.1,1582.8,1781.7,1575.1,1760.8,1575.1z"/>
		<path id="XMLID_60_" d="M1884.4,1495.1c0-13.9,4.6-20.8,13.7-20.8c4.5,0,8,1.8,10.5,5.4c2.5,3.6,3.8,8.7,3.8,15.4
			c0,6.5-1.3,11.6-3.8,15.4c-2.5,3.8-6,5.6-10.5,5.6C1889,1516.1,1884.4,1509.1,1884.4,1495.1z M1908.9,1796.2h-21.5v-224.9
			c0-5.9,4.8-10.7,10.7-10.7l0,0c5.9,0,10.7,4.8,10.7,10.7V1796.2z"/>
		<path id="XMLID_63_" d="M2042.3,1556c6.8,0,13.9,0.5,21.3,1.4c5.9,0.7,9.9,6.3,8.7,12.2v0c-1.1,5.4-6.3,9-11.8,8.1
			c-6.8-1.1-13.7-1.7-20.8-1.7c-20.1,0-36.6,8.5-49.4,25.6c-12.9,17.1-19.3,38.6-19.3,64.6v130.1h-21.5v-235.7h18.2l2.2,42.5h1.5
			c9.7-17.3,20-29.5,31-36.5C2013.4,1559.5,2026.7,1556,2042.3,1556z"/>
		<path id="XMLID_65_" d="M2289.1,1678.1c0,38.5-9.3,68.5-28,90.1c-18.6,21.6-44.4,32.4-77.2,32.4c-20.7,0-38.9-5-54.6-15
			c-15.8-10-27.8-24.3-36.2-42.9c-8.4-18.6-12.6-40.2-12.6-64.6c0-38.4,9.3-68.4,28-89.9c18.6-21.5,44.2-32.2,76.8-32.2
			c32.4,0,57.8,10.9,76.2,32.6C2279.9,1610.4,2289.1,1640.2,2289.1,1678.1z M2103.1,1678.1c0,32.4,7.1,57.6,21.4,75.8
			c14.2,18.1,34.4,27.2,60.4,27.2c26,0,46.1-9.1,60.4-27.2c14.2-18.1,21.4-43.4,21.4-75.8c0-32.5-7.2-57.7-21.6-75.7
			c-14.4-17.9-34.6-26.9-60.6-26.9c-26,0-46.1,8.9-60.2,26.8C2110.1,1620.1,2103.1,1645.4,2103.1,1678.1z"/>
		<path id="XMLID_68_" d="M2472.4,1734.9c0,21.1-8,37.3-24.1,48.7c-16,11.3-38.8,17-68.3,17c-27.9,0-50.8-3.8-68.5-11.4
			c-4-1.7-6.5-5.6-6.5-9.9v0c0-7.6,7.6-12.7,14.7-9.9c19.3,7.5,39.4,11.3,60.4,11.3c23.3,0,40.9-3.9,53-11.6
			c12.1-7.7,18.1-18,18.1-30.9c0-11.9-4.8-21.8-14.4-29.9c-9.6-8.1-25.4-16-47.4-23.8c-23.6-8.5-40.1-15.9-49.7-22
			c-9.5-6.1-16.7-13.1-21.6-20.8c-4.8-7.7-7.3-17.2-7.3-28.3c0-17.6,7.4-31.6,22.2-41.8c14.8-10.3,35.5-15.4,62.1-15.4
			c21.6,0,42.3,3.4,62.1,10.3c5.7,2,8.5,8.4,6.2,13.9l0,0c-2.1,5.2-8,7.8-13.3,5.9c-19.6-7.1-37.9-10.7-55-10.7
			c-19.2,0-34.5,3.2-45.7,9.5c-11.3,6.4-16.9,15.2-16.9,26.5c0,12.3,4.4,22.1,13.1,29.5c8.7,7.4,25.8,15.6,51.3,24.7
			c21.2,7.7,36.7,14.6,46.4,20.7c9.7,6.1,16.9,13.1,21.8,20.9C2470,1715.1,2472.4,1724.3,2472.4,1734.9z"/>
	</g>
</g>
<g id="XMLID_36_">
	<path id="XMLID_37_" d="M1098.5,1990.9h-8.8v-42.1h24.1v7.3h-15.4v10.9h14.3v7.3h-14.3V1990.9z"/>
	<path id="XMLID_39_" d="M1144.5,1990.9v-42.1h8.9v42.1H1144.5z"/>
	<path id="XMLID_41_" d="M1211.3,1979.2c0,3.8-1.4,6.8-4.1,9c-2.7,2.2-6.5,3.3-11.4,3.3c-4.5,0-8.5-0.8-11.9-2.5v-8.3
		c2.8,1.3,5.2,2.2,7.2,2.7c2,0.5,3.8,0.8,5.4,0.8c2,0,3.5-0.4,4.5-1.1c1-0.8,1.6-1.9,1.6-3.3c0-0.8-0.2-1.6-0.7-2.2s-1.1-1.3-2-1.9
		c-0.9-0.6-2.7-1.5-5.5-2.9c-2.6-1.2-4.5-2.4-5.8-3.5c-1.3-1.1-2.3-2.4-3.1-3.9c-0.8-1.5-1.2-3.2-1.2-5.2c0-3.7,1.3-6.7,3.8-8.8
		c2.5-2.1,6-3.2,10.5-3.2c2.2,0,4.3,0.3,6.3,0.8c2,0.5,4.1,1.2,6.2,2.2l-2.9,6.9c-2.2-0.9-4.1-1.6-5.6-1.9c-1.5-0.4-2.9-0.5-4.3-0.5
		c-1.7,0-3,0.4-3.9,1.2c-0.9,0.8-1.4,1.8-1.4,3.1c0,0.8,0.2,1.5,0.5,2.1c0.4,0.6,0.9,1.2,1.7,1.7c0.8,0.5,2.7,1.5,5.7,3
		c3.9,1.9,6.6,3.8,8.1,5.7C1210.6,1974.1,1211.3,1976.4,1211.3,1979.2z"/>
	<path id="XMLID_43_" d="M1241.4,1990.9v-42.1h8.9v42.1H1241.4z"/>
	<path id="XMLID_45_" d="M1321.6,1969.7c0,7-1.7,12.3-5.2,16.1c-3.5,3.7-8.4,5.6-14.9,5.6s-11.4-1.9-14.9-5.6
		c-3.5-3.7-5.2-9.1-5.2-16.1c0-7,1.7-12.4,5.2-16.1c3.5-3.7,8.4-5.5,14.9-5.5c6.5,0,11.4,1.9,14.9,5.6
		C1319.9,1957.4,1321.6,1962.8,1321.6,1969.7z M1290.8,1969.7c0,4.7,0.9,8.3,2.7,10.6c1.8,2.4,4.5,3.6,8,3.6
		c7.1,0,10.7-4.7,10.7-14.2c0-9.5-3.5-14.2-10.6-14.2c-3.6,0-6.2,1.2-8,3.6C1291.7,1961.5,1290.8,1965,1290.8,1969.7z"/>
	<path id="XMLID_48_" d="M1369,1990.9h-8.9v-34.7h-11.4v-7.4h31.8v7.4H1369V1990.9z"/>
	<path id="XMLID_71_" d="M1433.6,1990.9h-24.3v-42.1h24.3v7.3h-15.3v9.2h14.3v7.3h-14.3v10.9h15.3V1990.9z"/>
	<path id="XMLID_73_" d="M1473.7,1974.7v16.2h-8.9v-42.1h12.3c5.7,0,10,1,12.7,3.1c2.7,2.1,4.1,5.2,4.1,9.5c0,2.5-0.7,4.7-2,6.6
		c-1.4,1.9-3.3,3.4-5.8,4.5c6.3,9.5,10.5,15.6,12.4,18.4h-9.9l-10.1-16.2H1473.7z M1473.7,1967.4h2.9c2.8,0,4.9-0.5,6.3-1.4
		c1.3-0.9,2-2.4,2-4.4c0-2-0.7-3.4-2.1-4.3c-1.4-0.8-3.5-1.3-6.4-1.3h-2.7V1967.4z"/>
	<path id="XMLID_76_" d="M1551.9,1990.9l-3.1-10h-15.4l-3.1,10h-9.6l14.9-42.3h10.9l14.9,42.3H1551.9z M1546.7,1973.3
		c-2.8-9.1-4.4-14.2-4.8-15.4c-0.4-1.2-0.6-2.1-0.8-2.8c-0.6,2.5-2.4,8.5-5.4,18.2H1546.7z"/>
	<path id="XMLID_79_" d="M1618.4,1961.9c0,4.5-1.4,8-4.2,10.4c-2.8,2.4-6.9,3.6-12.1,3.6h-3.8v15h-8.9v-42.1h13.5
		c5.1,0,9,1.1,11.7,3.3S1618.4,1957.5,1618.4,1961.9z M1598.2,1968.6h2.9c2.7,0,4.8-0.5,6.2-1.6c1.4-1.1,2-2.7,2-4.7
		c0-2.1-0.6-3.6-1.7-4.6c-1.1-1-2.9-1.5-5.4-1.5h-4.1V1968.6z"/>
	<path id="XMLID_82_" d="M1673,1990.9h-24.3v-42.1h24.3v7.3h-15.3v9.2h14.3v7.3h-14.3v10.9h15.3V1990.9z"/>
	<path id="XMLID_84_" d="M1738.5,1948.7v27.3c0,3.1-0.7,5.8-2.1,8.2c-1.4,2.3-3.4,4.1-6,5.4c-2.6,1.2-5.7,1.9-9.3,1.9
		c-5.4,0-9.6-1.4-12.6-4.2c-3-2.8-4.5-6.6-4.5-11.4v-27.1h8.9v25.8c0,3.2,0.7,5.6,2,7.1c1.3,1.5,3.5,2.3,6.5,2.3
		c2.9,0,5-0.8,6.4-2.3c1.3-1.5,2-3.9,2-7.2v-25.7H1738.5z"/>
	<path id="XMLID_86_" d="M1787.5,1990.9h-8.9v-34.7h-11.4v-7.4h31.8v7.4h-11.4V1990.9z"/>
	<path id="XMLID_88_" d="M1853.6,1990.9l-3.1-10h-15.4l-3.1,10h-9.6l14.9-42.3h10.9l14.9,42.3H1853.6z M1848.4,1973.3
		c-2.8-9.1-4.4-14.2-4.8-15.4c-0.4-1.2-0.6-2.1-0.8-2.8c-0.6,2.5-2.4,8.5-5.4,18.2H1848.4z"/>
</g>
</svg>
