<?xml version="1.0" encoding="utf-8"?>
<!-- Generator: Adobe Illustrator 19.0.0, SVG Export Plug-In . SVG Version: 6.00 Build 0)  -->
<svg version="1.1" id="Camada_1" xmlns="http://www.w3.org/2000/svg" xmlns:xlink="http://www.w3.org/1999/xlink" x="0px" y="0px"
	 viewBox="0 0 3000 2000" style="enable-background:new 0 0 3000 2000;" xml:space="preserve">
<style type="text/css">
	.st0{fill:#F79294;}
	.st1{fill:#FFFFFF;}
</style>
<g id="XMLID_2_">
	<g id="XMLID_5_">
		<g id="XMLID_29_">
			<path id="XMLID_149_" class="st0" d="M1896.8,689c-1.3,0-2.5-0.2-3.8-0.5c-151.8-42.4-242.4-103.4-291.6-147.2
				c-54.4-48.3-72.8-86.8-73.5-88.4c-0.8-1.8-1.9-3.8-1.9-5.8V76.8c0-7.8,6.2-14.2,14-14.2s14,6.3,14,14.2v366.8
				c5,8.8,24,40.1,67,77.9c46.9,41.3,133.8,99.1,279.2,139.6c7.5,2.1,12.1,9.9,10,17.5C1908.5,684.9,1903,689,1896.8,689z"/>
			<path id="XMLID_150_" class="st0" d="M1896.8,690.5c-1.4,0-2.8-0.2-4.2-0.6c-152.1-42.4-242.9-103.7-292.2-147.5
				c-55.6-49.4-73.7-88.6-73.9-88.9l0-0.6c-0.8-1.8-1.5-3.7-1.5-5.9V76.8c0-8.6,6.9-15.7,15.5-15.7s15.5,7,15.5,15.7v366.5
				c7,12.9,27.9,43.4,66.3,77.2c46.8,41.2,133,98.7,278.5,139.3c4,1.1,7.4,3.8,9.5,7.4c2.1,3.7,2.6,7.9,1.5,11.9
				C1909.8,685.9,1903.8,690.5,1896.8,690.5z M1540.5,64.1c-7,0-12.5,5.7-12.5,12.7V447c0,1.5,0.5,3.1,1.2,4.6l0.2,0.6
				c0.2,0.4,17.9,38.9,73.1,87.9c49.1,43.7,139.5,104.6,291,146.9c1.1,0.3,2.3,0.5,3.4,0.5c5.7,0,10.5-3.7,12.1-9.3
				c1.9-6.7-2.1-13.7-9-15.6c-146-40.7-232.7-98.6-279.7-140c-39-34.3-60.5-65.4-67.1-78.4l-0.1-0.3V76.8
				C1553,69.8,1547.5,64.1,1540.5,64.1z"/>
		</g>
	</g>
	<g id="XMLID_6_">
		<g id="XMLID_28_">
			<path id="XMLID_26_" class="st0" d="M1171.9,711.9c-6.5,0-12.4-4.6-13.9-11.2c-1.6-7.7,3.2-15.2,10.9-16.8
				c1-0.2,49-10.9,117.3-46.3c63.3-32.8,157.4-94,246.5-199.8c5-6,14-6.8,20-1.7c6,5,6.8,14,1.7,20
				c-92.5,109.7-190.4,173.3-256.2,207.2c-71.8,37-121.3,47.8-123.3,48.3C1173.9,711.8,1172.9,711.9,1171.9,711.9z"/>
			<path id="XMLID_27_" class="st0" d="M1171.9,713.4c-7.3,0-13.8-5.2-15.3-12.4c-1.8-8.5,3.6-16.8,12-18.6
				c0.5-0.1,49-11,116.9-46.2c63.1-32.7,157.1-93.8,246.1-199.4c5.6-6.6,15.5-7.5,22.1-1.9c6.6,5.6,7.5,15.5,1.9,22.1
				C1463,567,1364.9,630.6,1298.9,664.7c-72,37.1-121.6,48-123.7,48.4C1174.1,713.3,1173,713.4,1171.9,713.4z M1543.6,434.3
				c-3.6,0-7.2,1.5-9.7,4.5c-89.3,105.9-183.6,167.3-247,200.1c-68.3,35.3-115.7,46-117.7,46.4c-6.8,1.5-11.2,8.2-9.8,15.1
				c1.2,5.8,6.5,10,12.4,10c0.9,0,1.8-0.1,2.7-0.3c2.1-0.4,51.3-11.2,123-48.2c65.7-33.9,163.4-97.3,255.8-206.9
				c4.5-5.4,3.8-13.4-1.5-17.9C1549.4,435.3,1546.5,434.3,1543.6,434.3z"/>
		</g>
	</g>
	<g id="XMLID_7_">
		<g id="XMLID_25_">
			<path id="XMLID_23_" class="st0" d="M1201.1,947.3c-73.5,0-118-26.1-143.5-50.3c-33.6-31.9-42.3-67.4-42.6-68.9
				c-0.1-0.4-0.2-0.7-0.2-1.1c-12.8-83-0.6-175.8,35.3-268.3c31.2-80.3,79.3-157.8,135.5-218c65.2-69.9,132.6-107.6,184.8-103.2
				c26.4,2.2,48.5,14.3,65.9,36c65.9,82.2,41.3,281.7,38.9,299.8c1,141.4-5.1,233.9-39.2,288.1c-33.5,53.3-89.7,69.7-188.4,82.7
				C1230.9,946.3,1215.5,947.3,1201.1,947.3z M1042.7,822c1,3.6,9.2,31,35.5,55.5c29.8,27.7,70.7,41.6,121.9,41.6
				c13.8,0,28.3-1,43.6-3c90-11.9,140.7-25.9,168.2-69.7c30.5-48.5,35.8-137.1,34.8-273.8c0-0.7,0-1.4,0.1-2
				c0.3-2,27.2-204.4-32.8-279.2c-12.5-15.6-27.6-23.9-46.1-25.5c-42.9-3.6-103.3,31.7-161.7,94.3
				C1106.1,467.5,1016.8,651.9,1042.7,822z"/>
			<path id="XMLID_142_" class="st0" d="M1201.1,948.8L1201.1,948.8c-75.3,0-120.2-27.6-144.5-50.8c-33.9-32.2-42.7-68.1-43.1-69.6
				c-0.1-0.4-0.2-0.8-0.2-1.2c-12.9-83.3-0.6-176.3,35.3-269c31.3-80.5,79.5-158.1,135.8-218.5c65.5-70.3,133.3-108.1,186-103.7
				c26.8,2.2,49.3,14.5,67,36.6c65.8,82.1,42.2,278.2,39.2,300.8c1,141.6-5.1,234.3-39.4,288.8c-33.8,53.8-90.3,70.3-189.5,83.4
				C1231.6,947.7,1216,948.8,1201.1,948.8L1201.1,948.8z M1362,238.6c-50.6,0-113.9,37.1-175.4,103.1
				c-56,60.1-104,137.4-135.2,217.5c-35.8,92.2-48,184.7-35.2,267.5c0.1,0.3,0.1,0.7,0.2,1c0.3,1.5,8.9,36.5,42.2,68.1
				c24,22.8,68.2,49.9,142.5,49.9c14.7,0,30.2-1.1,46.2-3.2c98.3-13,154.4-29.3,187.6-82c33.9-54,40.1-146.2,39.1-287.3v-0.1
				l-0.2-0.1c2.9-22,26.5-217.3-38.7-298.6c-17.1-21.4-39-33.3-64.9-35.5C1367.6,238.8,1364.8,238.6,1362,238.6z M1200.2,920
				C1200.2,920,1200.2,920,1200.2,920c-51.6,0-93-13.9-123-41.7c-26.7-24.8-35.1-52.9-36-56l0-0.1c-26-170.6,63.6-355.5,163.9-463.1
				c58.7-62.9,119.6-98.3,162.9-94.7c19,1.6,34.4,10.1,47.2,26c60.3,75.3,33.4,278.3,33.1,280.3c-0.1,0.6-0.1,1.2-0.1,1.8
				c1,137-4.4,225.9-35,274.6c-27.8,44.2-78.8,58.2-169.2,70.1C1228.7,919.2,1214,920,1200.2,920z M1044.2,821.6
				c1,3.4,9.2,30.3,35.1,54.4c29.4,27.3,70.1,40.9,120.9,40.9c0,0,0,0,0,0c13.7,0,28.3-0.8,43.4-2.8
				c89.5-11.8,139.9-25.6,167.1-68.9c30.3-48.2,35.6-136.5,34.6-273c0-0.7,0-1.5,0.1-2.2c0.3-2,27.1-203.8-32.5-278.1
				c-12.2-15.3-27-23.4-45.1-24.9c-42.4-3.5-102.4,31.5-160.5,93.8C1107.5,468.2,1018.3,652.1,1044.2,821.6z"/>
		</g>
	</g>
	<g id="XMLID_4_">
		<g id="XMLID_22_">
			<path id="XMLID_133_" class="st0" d="M1884.3,947.3c-14.3,0-29.8-1-46.4-3.2c-98.7-13.1-155-29.4-188.4-82.7
				c-34.1-54.2-40.2-146.7-39.2-288.1c-2.4-18.1-27-217.5,38.9-299.8c17.4-21.7,39.6-33.8,65.9-36c52.3-4.4,119.6,33.3,184.8,103.2
				c56.2,60.2,104.3,137.7,135.5,218c35.9,92.5,48.1,185.2,35.3,268.3c-0.1,0.4-0.1,0.7-0.2,1.1c-0.4,1.5-9,36.9-42.6,68.9
				C2002.3,921.2,1957.7,947.3,1884.3,947.3z M1723.5,265.5c-2.1,0-4.1,0.1-6.1,0.2c-18.5,1.5-33.6,9.9-46.1,25.5
				c-60,74.9-33.1,277.2-32.8,279.2c0.1,0.7,0.1,1.4,0.1,2c-1,136.7,4.3,225.4,34.8,273.8c27.5,43.7,78.2,57.8,168.2,69.7
				c15.3,2,29.8,3,43.6,3c51.9,0,93.1-14.3,123-42.6c25.7-24.4,33.5-50.7,34.4-54.4c26-170.1-63.4-354.5-163.5-461.9
				C1823.5,300.3,1765.9,265.5,1723.5,265.5z"/>
			<path id="XMLID_136_" class="st0" d="M1884.3,949c-14.8,0-30.5-1.2-46.6-3.3c-99.2-13.1-155.7-29.7-189.5-83.4
				c-34.3-54.6-40.4-147.3-39.4-288.9c-3-22.6-26.6-218.7,39.2-300.8c17.7-22,40.2-34.3,67-36.6c52.7-4.4,120.5,33.4,186,103.7
				c56.3,60.4,104.5,138,135.8,218.5c36,92.7,48.2,185.7,35.3,269c-0.1,0.4-0.1,0.8-0.2,1.2c-0.4,1.5-9.1,37.5-43.1,69.7
				C2004.4,921.3,1959.6,949,1884.3,949C1884.3,949,1884.3,949,1884.3,949z M1723.4,238.6c-2.8,0-5.5,0.1-8.2,0.3
				c-25.9,2.2-47.8,14.1-64.9,35.5c-65.1,81.3-41.9,276.6-39,298.6l-0.4,0.1v0.1c0,141.1,5.4,233.4,39.3,287.3
				c33.2,52.8,89.3,69.1,187.6,82.1c15.9,2.1,31.7,3.3,46.4,3.3c0,0,0,0,0,0c74.3,0,118.5-27.3,142.5-50
				c33.3-31.6,41.9-66.7,42.2-68.2c0.1-0.3,0.1-0.7,0.2-1c12.8-82.8,0.6-175.3-35.2-267.5c-31.1-80.2-79.1-157.4-135.2-217.5
				C1837.3,275.7,1774,238.6,1723.4,238.6z M1885.3,920C1885.3,920,1885.3,920,1885.3,920c-13.8,0-28.6-0.8-43.8-2.8
				c-90.4-12-141.4-26-169.2-70.2c-30.7-48.8-36.1-137.6-35-274.6c0-0.6,0-1.2-0.1-1.8c-0.3-2-27.4-204.8,33.1-280.3
				c12.8-15.9,28.2-24.4,47.2-26c2-0.2,4.1-0.2,6.2-0.2c42.7,0,101.3,35.5,156.7,95c100.4,107.7,190,292.6,163.9,463.2l0,0.2
				c-0.8,3-8.7,30-34.9,54.8C1979.2,905.8,1937.5,920,1885.3,920z M1723.5,267c-2,0-4,0.1-6,0.2c-18.1,1.5-32.9,9.7-45.1,24.9
				c-59.7,74.5-32.8,276-32.5,278.1c0.1,0.7,0.2,1.5,0.1,2.3c-1,136.4,4.3,224.9,34.6,273c27.2,43.2,77.6,56.9,167.1,68.7
				c15.1,2,29.8,2.8,43.4,2.8c0,0,0,0,0,0c51.4,0,92.5-13.9,122-42c25.4-24.1,33.1-50.2,34-53.5c25.8-169.6-63.3-353.4-163.2-460.6
				C1823.2,302.1,1765.4,267,1723.5,267z"/>
		</g>
	</g>
	<g id="XMLID_9_">
		<g id="XMLID_21_">
			<path id="XMLID_129_" class="st0" d="M1397.3,599c-7.5,0-13.7-5.9-14.1-13.4c0-0.8-3.7-54.5-45-87.3
				c-30.5-24.3-74.3-31.8-130.2-22.2c-7.7,1.3-15-3.9-16.4-11.6c-1.3-7.7,3.9-15,11.6-16.4c64.3-11,115.8-1.5,152.9,28.2
				c51.3,41,55.2,105,55.3,107.8c0.4,7.8-5.6,14.5-13.4,14.9C1397.8,599,1397.6,599,1397.3,599z"/>
			<path id="XMLID_130_" class="st0" d="M1397.3,600.5c-8.3,0-15.2-6.5-15.6-14.8c0-0.5-3.7-53.9-44.4-86.2
				c-30.2-24-73.6-31.4-129-21.9c-8.5,1.5-16.6-4.3-18.1-12.8c-0.7-4.1,0.2-8.3,2.7-11.7c2.4-3.4,6-5.7,10.2-6.4
				c64.8-11.1,116.6-1.5,154.1,28.5c51.8,41.4,55.7,106.1,55.9,108.8c0.2,4.2-1.2,8.2-4,11.3c-2.8,3.1-6.6,4.9-10.8,5.2
				C1397.9,600.5,1397.6,600.5,1397.3,600.5z M1252.2,470.6c35.6,0,64.7,8.9,86.9,26.6c41.7,33.1,45.5,87.8,45.5,88.4
				c0.4,7,6.3,12.3,13.3,12c3.4-0.2,6.5-1.7,8.8-4.2c2.3-2.5,3.4-5.8,3.2-9.2c-0.1-2.7-4-66.1-54.8-106.7
				c-36.8-29.4-87.8-38.8-151.7-27.9c-3.3,0.6-6.3,2.4-8.2,5.2s-2.7,6.1-2.2,9.5c1.2,6.9,7.7,11.5,14.6,10.4
				C1223.6,471.9,1238.4,470.6,1252.2,470.6z"/>
		</g>
	</g>
	<g id="XMLID_10_">
		<g id="XMLID_20_">
			<path id="XMLID_125_" class="st0" d="M1261.6,599c-6.2,0-11.9-4.1-13.6-10.4c-0.5-1.7-11.1-41.3,9.8-77.3
				c13.8-23.7,37.4-39.9,70.4-48.3c7.6-1.9,15.3,2.7,17.2,10.3c1.9,7.6-2.7,15.3-10.3,17.2c-25.1,6.4-42.9,18.1-52.7,34.8
				c-15,25.6-7.2,55.5-7.1,55.8c2,7.5-2.4,15.3-10,17.4C1264.1,598.8,1262.9,599,1261.6,599z"/>
			<path id="XMLID_126_" class="st0" d="M1261.6,600.5c-7,0-13.2-4.7-15.1-11.5c-0.5-1.7-11.3-41.9,10-78.5c14-24.1,38-40.5,71.3-49
				c8.4-2.1,16.9,3,19,11.4c2.1,8.4-3,16.9-11.4,19c-24.7,6.3-42.2,17.7-51.7,34.1c-14.6,24.9-7,54.4-7,54.7
				c2.2,8.3-2.7,16.9-11,19.2C1264.4,600.3,1263,600.5,1261.6,600.5z M1331.7,464.1c-1,0-2.1,0.1-3.1,0.4
				c-32.5,8.2-55.9,24.2-69.5,47.6c-20.6,35.5-10.1,74.6-9.7,76.2c1.5,5.5,6.5,9.3,12.2,9.3c1.1,0,2.3-0.2,3.4-0.5
				c6.7-1.8,10.7-8.8,8.9-15.6c-0.1-0.3-8-30.9,7.3-56.9c10-17.1,28-29,53.6-35.5c6.8-1.7,10.9-8.6,9.2-15.4
				C1342.5,467.9,1337.3,464.1,1331.7,464.1z"/>
		</g>
	</g>
	<g id="XMLID_11_">
		<g id="XMLID_19_">
			<path id="XMLID_121_" class="st0" d="M1234.8,765.1c-4.2,0-8.4-1.9-11.2-5.5c-4.8-6.2-3.6-15.1,2.6-19.9
				c40.4-31.2,28.7-71.3,28.2-73c-2.4-7.5,1.7-15.4,9.2-17.8c7.5-2.4,15.5,1.8,17.9,9.2c0.8,2.4,18.6,60.4-37.9,104
				C1240.9,764.1,1237.8,765.1,1234.8,765.1z"/>
			<path id="XMLID_122_" class="st0" d="M1234.8,766.6c-4.9,0-9.4-2.2-12.4-6.1c-2.6-3.3-3.7-7.4-3.1-11.6c0.5-4.2,2.7-7.9,6-10.4
				c39.6-30.6,28.2-69.7,27.7-71.4c-1.3-4-0.9-8.2,1-11.9c1.9-3.7,5.2-6.5,9.2-7.7c4-1.3,8.2-0.9,12,1c3.7,1.9,6.5,5.2,7.8,9.2
				c0.8,2.5,18.9,61.4-38.4,105.6C1241.6,765.5,1238.3,766.6,1234.8,766.6z M1267.8,649.8c-1.3,0-2.6,0.2-3.9,0.6
				c-3.2,1-5.9,3.3-7.4,6.3c-1.6,3-1.8,6.4-0.8,9.7c0.5,1.8,12.5,42.8-28.7,74.6c-2.7,2.1-4.4,5.1-4.8,8.4c-0.4,3.4,0.5,6.7,2.5,9.4
				c2.4,3.1,6.1,4.9,10,4.9c2.8,0,5.5-0.9,7.7-2.6c55.7-43,38.2-100,37.4-102.4c-1-3.2-3.3-5.9-6.3-7.4
				C1271.8,650.2,1269.8,649.8,1267.8,649.8z"/>
		</g>
	</g>
	<g id="XMLID_12_">
		<g id="XMLID_18_">
			<path id="XMLID_117_" class="st0" d="M1318.7,736.6c-0.4-0.8-10.5-20.5-50.3-15.8c-7.8,0.9-14.8-4.6-15.7-12.4
				c-0.9-7.8,4.6-14.8,12.4-15.7c62-7.3,78.9,31,79.6,32.6l-26.1,11.1C1318.6,736.3,1318.6,736.4,1318.7,736.6z"/>
			<path id="XMLID_118_" class="st0" d="M1319.2,737.7l-0.6-1.1l-1.5,0.7c0,0,0,0,0,0l0,0c0-0.8-9.8-19.6-48.6-15
				c-8.6,1-16.3-5.2-17.3-13.7c-1-8.6,5.2-16.4,13.8-17.4c63.1-7.5,80.5,31.8,81.2,33.5l0.6,1.4L1319.2,737.7z M1280.1,718.6
				c26,0,36.2,11.6,39.1,15.9l23.5-10c-3.6-6.9-22.3-36.9-77.4-30.4c-6.9,0.8-11.9,7.1-11.1,14.1c0.8,6.9,7.2,11.9,14.1,11.1
				C1272.5,718.8,1276.5,718.6,1280.1,718.6z"/>
		</g>
	</g>
	<g id="XMLID_13_">
		<g id="XMLID_17_">
			<path id="XMLID_113_" class="st0" d="M1756.5,732.5c-5.4,0-10.6-3.1-12.9-8.4c-2.2-4.9-21.1-48.8-8.1-81.4
				c5.1-12.8,14.6-22.4,27.5-27.7c7.2-3,15.5,0.4,18.5,7.7c3,7.2-0.5,15.5-7.7,18.5c-5.9,2.4-9.7,6.2-12,11.9
				c-7.3,18.2,3.1,49.1,7.7,59.4c3.2,7.1,0,15.5-7.2,18.7C1760.4,732.1,1758.4,732.5,1756.5,732.5z"/>
			<path id="XMLID_114_" class="st0" d="M1756.5,734c-6.2,0-11.8-3.6-14.3-9.3c-2.2-5-21.4-49.4-8.2-82.6c5.2-13.2,15-23,28.3-28.5
				c3.9-1.6,8.1-1.6,12,0c3.9,1.6,6.9,4.6,8.5,8.5c1.6,3.9,1.6,8.1,0,12c-1.6,3.9-4.6,6.9-8.5,8.5c-5.5,2.3-9,5.8-11.2,11.1
				c-7.1,17.8,3.1,48,7.6,58.2c3.5,7.9,0,17.2-7.9,20.7C1760.8,733.5,1758.7,734,1756.5,734z M1768.3,615.4c-1.6,0-3.3,0.3-4.8,1
				c-12.5,5.2-21.8,14.5-26.7,26.9c-12.7,32,5.9,75.4,8.1,80.3c2,4.6,6.6,7.5,11.6,7.5c1.8,0,3.5-0.4,5.2-1.1
				c6.4-2.8,9.3-10.4,6.4-16.8c-4.7-10.5-15.2-41.8-7.7-60.5c2.4-6.1,6.5-10.2,12.8-12.8c3.1-1.3,5.6-3.7,6.9-6.9
				c1.3-3.1,1.3-6.6,0-9.7c-1.3-3.1-3.7-5.6-6.9-6.9C1771.6,615.7,1770,615.4,1768.3,615.4z"/>
		</g>
	</g>
	<g id="XMLID_14_">
		<g id="XMLID_16_">
			<path id="XMLID_109_" class="st0" d="M1698.6,606.4c-5.1,0-10.1-2.8-12.6-7.6c-0.5-1-12.3-23.9-15.1-55
				c-3.9-42.1,10.3-79.2,40.8-107.3c5.8-5.3,14.7-4.9,20,0.9c5.3,5.8,4.9,14.7-0.9,20c-57.8,53-20.1,127.5-19.7,128.3
				c3.6,7,0.9,15.5-6,19.1C1703.1,605.9,1700.8,606.4,1698.6,606.4z"/>
			<path id="XMLID_110_" class="st0" d="M1698.6,607.9c-5.9,0-11.2-3.2-13.9-8.5c-0.5-1-12.4-24.2-15.3-55.6
				c-3.9-42.6,10.4-80.1,41.3-108.5c6.4-5.8,16.3-5.4,22.1,1c2.8,3.1,4.3,7.1,4.1,11.3c-0.2,4.2-2,8-5.1,10.9
				c-56.9,52.2-19.8,125.8-19.4,126.5c4,7.7,1,17.2-6.7,21.1C1703.6,607.3,1701.1,607.9,1698.6,607.9z M1721.3,434.3
				c-3.1,0-6.1,1.1-8.6,3.3c-30.2,27.7-44.2,64.4-40.4,106c2.8,30.8,14.5,53.5,14.9,54.5c2.2,4.2,6.5,6.8,11.3,6.8
				c2,0,4-0.5,5.8-1.4c6.2-3.2,8.6-10.9,5.4-17.1c-0.4-0.8-38.6-76.2,20-130.1c5.2-4.7,5.5-12.8,0.8-17.9
				C1728.2,435.7,1724.8,434.3,1721.3,434.3z"/>
		</g>
	</g>
	<g id="XMLID_15_">
		<g id="XMLID_8_">
			<path id="XMLID_105_" class="st0" d="M1763.8,565.5c-33.8,0-64.1-12.1-88.6-35.7c-5.6-5.4-5.8-14.4-0.4-20.1
				c5.4-5.6,14.4-5.8,20.1-0.4c58.2,56,136.9,9.7,137.7,9.3c6.7-4,15.4-1.9,19.5,4.9c4,6.7,1.9,15.4-4.9,19.5
				c-1,0.6-24.7,14.7-57.3,20.3C1780.9,564.7,1772.2,565.5,1763.8,565.5z"/>
			<path id="XMLID_106_" class="st0" d="M1763.8,567c-34.1,0-65.1-12.5-89.7-36.1c-3-2.9-4.7-6.8-4.8-11c-0.1-4.2,1.5-8.2,4.4-11.2
				c2.9-3,6.8-4.7,11-4.8c4.2-0.1,8.2,1.5,11.2,4.4c57.3,55.1,135.1,9.5,135.9,9.1c7.4-4.4,17.1-2,21.5,5.4
				c2.2,3.6,2.8,7.8,1.8,11.9c-1,4.1-3.5,7.5-7.1,9.6c-1,0.6-24.9,14.8-57.8,20.5C1781.1,566.2,1772.3,567,1763.8,567z
				 M1684.9,506.9c-0.1,0-0.2,0-0.3,0c-3.4,0.1-6.5,1.5-8.9,3.9c-2.3,2.4-3.6,5.7-3.5,9c0.1,3.4,1.5,6.5,3.9,8.9
				c24.4,23.4,53.8,35.3,87.6,35.3c8.4,0,17-0.8,25.8-2.3c32.4-5.6,55.8-19.5,56.8-20.1c2.9-1.7,5-4.5,5.8-7.8
				c0.8-3.3,0.3-6.7-1.4-9.6c-3.6-6-11.4-7.9-17.4-4.3c-0.5,0.3-31.7,18.5-69.3,18.5c-22.8,0-47.9-6.7-70.2-28
				C1691.3,508.2,1688.2,506.9,1684.9,506.9z"/>
		</g>
	</g>
</g>
<g id="XMLID_1_">
	<g id="XMLID_30_">
		<path id="XMLID_32_" class="st0" d="M69.5,1682.9c-15.5,0-28.9-1.7-40.2-5.1c-6.5-1.9-11-8-11-14.8l0,0c0-9.6,8.6-16.9,18-15.3
			c11.2,1.9,22,2.9,32.6,2.9c54.7,0,82.1-29.9,82.1-89.6v-484c0-8.5,6.9-15.5,15.5-15.5h3.7c8.5,0,15.5,6.9,15.5,15.5v480.6
			C185.6,1641.1,146.9,1682.9,69.5,1682.9z"/>
		<path id="XMLID_34_" class="st0" d="M252.1,1188.8c9.2,0,16.6,7.4,16.6,16.6v222.2c0,37.1,7.8,64.1,23.4,80.9
			c15.6,16.9,39.8,25.3,72.6,25.3c43.9,0,76.2-11.1,96.9-33.3c20.7-22.2,31-58.2,31-108.2v-187c0-9.2,7.4-16.6,16.6-16.6h0
			c9.2,0,16.6,7.4,16.6,16.6v352.2h-28.5l-6.1-50.9h-2c-24,38.5-66.6,57.7-127.9,57.7c-83.9,0-125.9-44.9-125.9-134.7v-224.3
			C235.5,1196.3,242.9,1188.8,252.1,1188.8L252.1,1188.8z"/>
	</g>
	<g id="XMLID_3_">
		<path id="XMLID_49_" class="st1" d="M812.3,1543.7l-172.4-427.2h-2.6c1.7,26.8,2.6,54.2,2.6,82.2v354.7h-31.7v-442.7
			c0-16.9,13.7-30.5,30.5-30.5h0c12.5,0,23.7,7.6,28.3,19.1l160,397.1h1.9l160.1-397.6c4.5-11.3,15.5-18.6,27.6-18.6h0
			c16.4,0,29.8,13.3,29.8,29.8v443.4h-33.3v-358.6c0-25,1.3-50.9,3.9-77.7h-2.6l-173.1,426.5c-2.4,5.9-8.1,9.7-14.5,9.7h0
			C820.5,1553.5,814.7,1549.6,812.3,1543.7z"/>
		<path id="XMLID_51_" class="st1" d="M1253,1559.9c-51.1,0-91-15.7-119.6-47.3c-28.6-31.5-42.9-75.6-42.9-132.4
			c0-56.1,13.8-101,41.4-134.8c27.6-33.8,64.8-50.7,111.7-50.7c41.4,0,74.1,14.5,98.1,43.4c23.9,28.9,35.9,68.2,35.9,117.8v0
			c0,14.3-11.6,25.9-25.9,25.9h-227.5c0.4,48.3,11.7,85.2,33.8,110.7c22.1,25.5,53.8,38.2,95,38.2c20.1,0,37.7-1.4,52.9-4.2
			c11-2,24.1-5.7,39.3-11.1c9-3.2,18.5,3.4,18.5,13l0,0c0,5.7-3.5,10.7-8.7,12.8c-16.5,6.7-32,11.3-46.3,14
			C1291.9,1558.4,1273.3,1559.9,1253,1559.9z M1243.6,1223.3c-33.9,0-61.1,11.2-81.6,33.5c-20.5,22.3-32.5,54.5-35.9,96.6h217.5
			c0-40.8-8.8-72.7-26.5-95.6C1299.4,1234.8,1274.9,1223.3,1243.6,1223.3z"/>
		<path id="XMLID_54_" class="st1" d="M1566.7,1194.8c25.5,0,47.5,4.6,66,13.9c18.6,9.3,35.2,25.1,49.8,47.6h1.9
			c-1.3-27.2-1.9-53.8-1.9-79.9V1112c0-8.8,7.1-15.9,15.9-15.9l0,0c8.8,0,15.9,7.1,15.9,15.9v441.5h-21l-8.1-53.7h-2.6
			c-26.8,40.1-65.2,60.2-115.2,60.2c-48.5,0-85.7-15.1-111.3-45.3c-25.7-30.2-38.5-74.2-38.5-132.1c0-60.8,12.7-107.3,38.2-139.5
			C1481.1,1210.9,1518.1,1194.8,1566.7,1194.8z M1566.7,1224c-38.4,0-67.3,13.5-86.6,40.5c-19.3,27-29,66.1-29,117.5
			c0,99.7,38.7,149.5,116.2,149.5c39.7,0,68.8-11.5,87.4-34.6c18.6-23.1,27.8-61.2,27.8-114.2v-5.5c0-54.4-9.1-93.5-27.3-117.3
			C1636.9,1235.9,1607.4,1224,1566.7,1224z"/>
		<path id="XMLID_57_" class="st1" d="M1926.1,1559.9c-51.1,0-91-15.7-119.6-47.3c-28.6-31.5-42.9-75.6-42.9-132.4
			c0-56.1,13.8-101,41.4-134.8c27.6-33.8,64.8-50.7,111.7-50.7c41.4,0,74.1,14.5,98.1,43.4c24,28.9,35.9,68.2,35.9,117.8v25.9
			h-253.4c0.4,48.3,11.7,85.2,33.8,110.7c22.1,25.5,53.8,38.2,95,38.2c20.1,0,37.7-1.4,52.9-4.2c11-2,24.1-5.7,39.3-11.1
			c9-3.2,18.5,3.4,18.5,13v0c0,5.7-3.5,10.7-8.7,12.8c-16.5,6.7-32,11.3-46.3,14C1965,1558.4,1946.4,1559.9,1926.1,1559.9z
			 M1916.8,1223.3c-33.9,0-61.1,11.2-81.6,33.5c-20.5,22.3-32.5,54.5-35.9,96.6h217.5c0-40.8-8.8-72.7-26.5-95.6
			C1972.5,1234.8,1948,1223.3,1916.8,1223.3z"/>
		<path id="XMLID_60_" class="st1" d="M2101.4,1103.9c0-20.7,6.8-31.1,20.4-31.1c6.7,0,11.9,2.7,15.7,8.1c3.8,5.4,5.7,13.1,5.7,23
			c0,9.7-1.9,17.4-5.7,23c-3.8,5.6-9,8.4-15.7,8.4C2108.2,1135.3,2101.4,1124.8,2101.4,1103.9z M2137.9,1553.5h-32v-335.8
			c0-8.8,7.2-16,16-16l0,0c8.8,0,16,7.2,16,16V1553.5z"/>
		<path id="XMLID_63_" class="st1" d="M2337,1194.8c10.1,0,20.7,0.7,31.8,2.1c8.8,1.1,14.7,9.5,13,18.1l0,0
			c-1.6,8.1-9.4,13.4-17.6,12c-10.1-1.7-20.5-2.5-31.1-2.5c-30,0-54.6,12.7-73.8,38.2c-19.2,25.5-28.8,57.6-28.8,96.4v194.2h-32
			v-351.8h27.2l3.2,63.4h2.3c14.5-25.9,29.9-44.1,46.3-54.5C2293.9,1200.1,2313.7,1194.8,2337,1194.8z"/>
		<path id="XMLID_65_" class="st1" d="M2705.5,1377.1c0,57.4-13.9,102.2-41.8,134.5c-27.8,32.3-66.2,48.4-115.2,48.4
			c-30.9,0-58-7.4-81.6-22.3c-23.5-14.9-41.5-36.2-54-64.1c-12.5-27.8-18.8-60-18.8-96.4c0-57.4,13.9-102.1,41.8-134.2
			c27.8-32,66-48.1,114.6-48.1c48.3,0,86.3,16.2,113.8,48.7C2691.7,1276,2705.5,1320.5,2705.5,1377.1z M2427.8,1377.1
			c0,48.3,10.6,86,31.9,113.1c21.3,27.1,51.3,40.6,90.1,40.6c38.8,0,68.9-13.5,90.1-40.6c21.2-27.1,31.9-64.8,31.9-113.1
			c0-48.5-10.7-86.2-32.2-113c-21.5-26.8-51.6-40.1-90.5-40.1c-38.8,0-68.8,13.3-89.8,40C2438.3,1290.6,2427.8,1328.3,2427.8,1377.1
			z"/>
		<path id="XMLID_68_" class="st1" d="M2979.1,1461.9c0,31.5-12,55.7-35.9,72.7c-23.9,16.9-57.9,25.4-101.9,25.4
			c-41.7,0-75.8-5.7-102.2-17c-5.9-2.5-9.8-8.3-9.8-14.7v0c0-11.3,11.4-18.9,21.9-14.8c28.8,11.2,58.8,16.8,90.1,16.8
			c34.7,0,61.1-5.8,79.1-17.3c18-11.5,27-26.9,27-46.1c0-17.7-7.2-32.6-21.5-44.7c-14.4-12.1-37.9-24-70.7-35.6
			c-35.2-12.7-59.9-23.7-74.1-32.9c-14.2-9.2-25-19.5-32.2-31.1c-7.2-11.5-10.8-25.6-10.8-42.2c0-26.3,11.1-47.1,33.2-62.5
			c22.1-15.3,53-23,92.7-23c32.3,0,63.2,5.1,92.6,15.4c8.5,3,12.8,12.5,9.3,20.8l0,0c-3.2,7.8-12,11.7-19.9,8.8
			c-29.2-10.6-56.6-15.9-82.1-15.9c-28.7,0-51.5,4.7-68.3,14.2c-16.8,9.5-25.2,22.7-25.2,39.5c0,18.3,6.5,33,19.6,44
			c13.1,11,38.6,23.3,76.5,36.9c31.7,11.4,54.8,21.7,69.3,30.9c14.5,9.2,25.3,19.6,32.5,31.2
			C2975.5,1432.4,2979.1,1446.1,2979.1,1461.9z"/>
	</g>
</g>
<g id="XMLID_36_">
	<path id="XMLID_37_" class="st1" d="M928.2,1844h-13.1v-62.9h36v10.9h-22.9v16.2h21.3v10.9h-21.3V1844z"/>
	<path id="XMLID_39_" class="st1" d="M996.9,1844v-62.9h13.3v62.9H996.9z"/>
	<path id="XMLID_41_" class="st1" d="M1096.6,1826.5c0,5.7-2,10.1-6.1,13.4c-4.1,3.3-9.8,4.9-17.1,4.9c-6.7,0-12.6-1.3-17.8-3.8
		v-12.4c4.2,1.9,7.8,3.2,10.8,4c2.9,0.8,5.6,1.2,8.1,1.2c2.9,0,5.2-0.6,6.7-1.7c1.6-1.1,2.3-2.8,2.3-5c0-1.2-0.3-2.3-1-3.3
		c-0.7-1-1.7-1.9-3-2.8c-1.3-0.9-4.1-2.3-8.1-4.3c-3.8-1.8-6.7-3.5-8.6-5.2c-1.9-1.7-3.5-3.6-4.6-5.8c-1.1-2.2-1.7-4.8-1.7-7.7
		c0-5.6,1.9-9.9,5.7-13.1c3.8-3.2,9-4.8,15.6-4.8c3.3,0,6.4,0.4,9.4,1.2c3,0.8,6.1,1.9,9.3,3.3l-4.3,10.4c-3.4-1.4-6.1-2.3-8.3-2.9
		c-2.2-0.5-4.4-0.8-6.5-0.8c-2.5,0-4.5,0.6-5.8,1.8c-1.3,1.2-2,2.7-2,4.6c0,1.2,0.3,2.2,0.8,3.1c0.5,0.9,1.4,1.7,2.6,2.5
		c1.2,0.8,4,2.3,8.5,4.4c5.9,2.8,9.9,5.6,12.1,8.5C1095.5,1819,1096.6,1822.4,1096.6,1826.5z"/>
	<path id="XMLID_43_" class="st1" d="M1141.5,1844v-62.9h13.3v62.9H1141.5z"/>
	<path id="XMLID_45_" class="st1" d="M1261.2,1812.5c0,10.4-2.6,18.4-7.7,24c-5.2,5.6-12.6,8.4-22.2,8.4c-9.6,0-17-2.8-22.2-8.4
		c-5.2-5.6-7.7-13.6-7.7-24.1c0-10.5,2.6-18.5,7.8-24c5.2-5.5,12.6-8.3,22.3-8.3c9.7,0,17.1,2.8,22.2,8.3
		C1258.6,1794,1261.2,1802,1261.2,1812.5z M1215.3,1812.5c0,7,1.3,12.3,4,15.9c2.7,3.6,6.7,5.3,12,5.3c10.6,0,16-7.1,16-21.2
		c0-14.2-5.3-21.2-15.9-21.2c-5.3,0-9.3,1.8-12,5.4C1216.6,1800.1,1215.3,1805.4,1215.3,1812.5z"/>
	<path id="XMLID_48_" class="st1" d="M1331.9,1844h-13.3v-51.8h-17.1v-11.1h47.5v11.1h-17.1V1844z"/>
	<path id="XMLID_71_" class="st1" d="M1428.3,1844h-36.2v-62.9h36.2v10.9h-22.9v13.8h21.3v10.9h-21.3v16.2h22.9V1844z"/>
	<path id="XMLID_73_" class="st1" d="M1488.2,1819.9v24.1h-13.3v-62.9h18.3c8.5,0,14.9,1.6,19,4.7c4.1,3.1,6.1,7.8,6.1,14.2
		c0,3.7-1,7-3.1,9.9c-2,2.9-4.9,5.1-8.6,6.8c9.5,14.1,15.6,23.3,18.5,27.4h-14.8l-15-24.1H1488.2z M1488.2,1809h4.3
		c4.2,0,7.3-0.7,9.3-2.1c2-1.4,3-3.6,3-6.6c0-3-1-5.1-3.1-6.4c-2-1.3-5.2-1.9-9.5-1.9h-4V1809z"/>
	<path id="XMLID_76_" class="st1" d="M1605,1844l-4.6-15h-22.9l-4.6,15h-14.4l22.2-63.1h16.3l22.3,63.1H1605z M1597.3,1817.8
		c-4.2-13.6-6.6-21.2-7.1-23c-0.5-1.8-0.9-3.2-1.1-4.2c-0.9,3.7-3.7,12.7-8.1,27.2H1597.3z"/>
	<path id="XMLID_79_" class="st1" d="M1704.2,1800.7c0,6.8-2.1,11.9-6.3,15.5c-4.2,3.6-10.2,5.4-18,5.4h-5.7v22.4h-13.3v-62.9h20.1
		c7.6,0,13.4,1.6,17.4,4.9C1702.2,1789.3,1704.2,1794.2,1704.2,1800.7z M1674.1,1810.7h4.4c4.1,0,7.2-0.8,9.2-2.4
		c2-1.6,3.1-4,3.1-7.1c0-3.1-0.9-5.4-2.6-6.9c-1.7-1.5-4.4-2.2-8-2.2h-6.1V1810.7z"/>
	<path id="XMLID_82_" class="st1" d="M1785.7,1844h-36.2v-62.9h36.2v10.9h-22.9v13.8h21.3v10.9h-21.3v16.2h22.9V1844z"/>
	<path id="XMLID_84_" class="st1" d="M1883.5,1781.1v40.7c0,4.6-1,8.7-3.1,12.2c-2.1,3.5-5.1,6.2-9,8c-3.9,1.9-8.6,2.8-13.9,2.8
		c-8.1,0-14.4-2.1-18.8-6.2c-4.5-4.1-6.7-9.8-6.7-17v-40.5h13.3v38.5c0,4.8,1,8.4,2.9,10.7c2,2.3,5.2,3.4,9.7,3.4
		c4.4,0,7.5-1.1,9.5-3.4c2-2.3,2.9-5.9,2.9-10.7v-38.4H1883.5z"/>
	<path id="XMLID_86_" class="st1" d="M1956.6,1844h-13.3v-51.8h-17.1v-11.1h47.5v11.1h-17.1V1844z"/>
	<path id="XMLID_88_" class="st1" d="M2055.3,1844l-4.6-15h-22.9l-4.6,15h-14.4l22.2-63.1h16.3l22.3,63.1H2055.3z M2047.6,1817.8
		c-4.2-13.6-6.6-21.2-7.1-23c-0.5-1.8-0.9-3.2-1.1-4.2c-0.9,3.7-3.7,12.7-8.1,27.2H2047.6z"/>
</g>
</svg>
