<?xml version="1.0" encoding="utf-8"?>
<!-- Generator: Adobe Illustrator 19.0.0, SVG Export Plug-In . SVG Version: 6.00 Build 0)  -->
<svg version="1.1" id="Camada_1" xmlns="http://www.w3.org/2000/svg" xmlns:xlink="http://www.w3.org/1999/xlink" x="0px" y="0px"
	 viewBox="0 0 960 560" style="enable-background:new 0 0 960 560;" xml:space="preserve">
<style type="text/css">
	.st0{fill:#fff;}
</style>
<g id="XMLID_2_">
	<path id="XMLID_3_" class="st0" d="M50.1,444.6H24.9L94.8,115c8.3-39,42.7-66.9,82.5-66.9h8.4l-73.4,346.1
		C106,423.6,80.1,444.6,50.1,444.6z"/>
	<path id="XMLID_5_" class="st0" d="M324.7,391.5c-27.5,51.9-58.5,58.3-94.2,58.3c-23.4,0-41.4-7-53.8-21
		c-12.4-14-18.6-34.3-18.6-60.8c0-15.8,2-33.9,6.1-54.3l16.6-78.8c9.2-43.7,47.8-75.1,92.5-75.1h0l-34.9,166.4
		c-2.7,11.6-4.1,21.7-4.1,30.3c0,20.9,9.2,31.3,27.5,31.3c15.6,0,29.8-9.7,42.6-29c12.7-19.4,22.8-46.4,30.1-81l9.1-42.9
		c9.3-43.7,47.9-75,92.6-75h0l-60.4,284.9H364C336.4,444.6,318.2,418.3,324.7,391.5"/>
	<path id="XMLID_7_" class="st0" d="M542.2,449.7c-34.1,0-60.4-9.1-78.6-27.4c-18.3-18.3-27.4-44-27.4-77.3c0-36,6.3-68.8,19-98.2
		c12.7-29.5,30.5-52.2,53.4-68.3c22.9-16.1,49.1-24.1,78.5-24.1c4,0,8,0.1,12,0.3c37.9,2,62.3,41.2,48.2,76.4v0
		c-9.2-3.9-18.2-7.3-27-10.2c-8.8-2.9-18.9-4.3-30.1-4.3c-14.4,0-27.5,5.4-39.1,16.3c-11.6,10.9-20.7,25.8-27.3,44.7
		c-6.5,18.9-9.8,39.3-9.8,61c0,16.3,3.9,28.6,11.6,36.8c7.7,8.2,18.5,12.4,32.2,12.4c12.9,0,24.9-2,35.9-6c11-4,22.4-9,34.1-14.9
		v7.7c0,38.4-29.1,70.9-67.4,74.3C554.4,449.5,548.4,449.7,542.2,449.7z"/>
	<path id="XMLID_9_" class="st0" d="M737.4,449.7c-25,0-44.6-9-59-27.1c-14.4-18.1-21.5-43.4-21.5-76.1c0-33.6,6.1-65.7,18.3-96.2
		c12.2-30.5,28.3-54.1,48.2-70.8c19.9-16.7,41.7-25.1,65.5-25.1c16.5,0,30.7,3.6,42.7,10.7c12,7.1,21.3,17.5,27.9,31.1h2v0
		c8.8-22,30.1-36.4,53.8-36.4h19.9l-60.6,284.9h-58.4l3.6-36.9h-1C795.9,435.7,768.8,449.7,737.4,449.7z M767.5,387.8
		c11.7,0,23-5.7,33.9-17.1c10.9-11.4,19.6-26.8,26.2-46.2c6.6-19.4,9.9-41.5,9.9-66.1c0-12.1-3.3-22-9.8-29.9
		c-6.5-7.9-15.2-11.8-25.9-11.8c-11.6,0-22.6,6.1-33,18.3c-10.4,12.2-18.8,28.4-25,48.4c-6.2,20-9.3,39.9-9.3,59.6
		c0,14.9,2.8,26.2,8.5,33.6C748.8,384.1,756.9,387.8,767.5,387.8z"/>
</g>
</svg>
