<svg width="415" height="112" viewBox="0 0 415 112" fill="none" xmlns="http://www.w3.org/2000/svg">
<g filter="url(#filter0_d)">
<path fill-rule="evenodd" clip-rule="evenodd" d="M75.54 48.044H63.404V30.358H48.53V48.044H30.918V62.918H48.53V80.53H63.404V62.918H81.164L75.54 48.044Z" fill="#00C2CB"/>
<path fill-rule="evenodd" clip-rule="evenodd" d="M114.242 30.062L103.068 66.396L91.746 30.062H75.466L94.484 80.53H111.356L130.078 30.062H114.242ZM159.086 45.528C156.052 43.974 151.908 43.16 146.728 43.16C140.29 43.16 135.258 44.936 131.558 48.488C127.932 52.04 126.082 56.628 126.082 62.4C126.082 66.396 126.97 69.948 128.82 72.908C130.67 75.868 132.964 78.088 135.702 79.42C138.44 80.752 142.288 81.492 147.098 81.492C152.648 81.492 156.94 80.678 159.9 79.124C162.86 77.496 165.45 74.906 167.522 71.206L153.758 69.8C152.87 70.91 152.056 71.65 151.316 72.094C150.058 72.76 148.8 73.13 147.394 73.13C145.248 73.13 143.472 72.316 142.066 70.762C141.104 69.652 140.512 67.95 140.216 65.73H168.262V64.176C168.262 59.366 167.448 55.444 165.894 52.41C164.414 49.45 162.12 47.156 159.086 45.528ZM140.364 59.07C140.586 56.924 141.104 55.222 141.992 54.112C143.324 52.336 145.1 51.448 147.32 51.448C149.244 51.448 150.798 52.04 151.982 53.224C153.166 54.408 153.906 56.332 154.128 59.07H140.364ZM189.13 44.64C187.798 45.602 186.466 47.378 185.208 49.968V43.974H172.11V80.53H186.17V68.32C186.17 62.474 186.91 58.478 188.316 56.332C189.352 54.852 190.758 54.038 192.608 54.038C193.57 54.038 194.902 54.408 196.53 55.074L200.896 45.084C198.454 43.826 196.16 43.16 194.088 43.16C192.09 43.16 190.462 43.678 189.13 44.64ZM229.534 60.772L221.616 30.062H201.118V80.53H213.92V42.05L223.762 80.53H235.306L245.148 42.05V80.53H257.876V30.062H237.378L229.534 60.772ZM295.246 45.528C292.212 43.974 288.068 43.16 282.888 43.16C276.45 43.16 271.418 44.936 267.718 48.488C264.092 52.04 262.242 56.628 262.242 62.4C262.242 66.396 263.13 69.948 264.98 72.908C266.83 75.868 269.124 78.088 271.862 79.42C274.6 80.752 278.448 81.492 283.258 81.492C288.808 81.492 293.1 80.678 296.06 79.124C299.02 77.496 301.61 74.906 303.682 71.206L289.992 69.8C289.104 70.91 288.29 71.65 287.55 72.094C286.292 72.76 285.034 73.13 283.628 73.13C281.482 73.13 279.706 72.316 278.3 70.762C277.338 69.652 276.746 67.95 276.45 65.73H304.496V64.176C304.496 59.366 303.682 55.444 302.128 52.41C300.574 49.45 298.28 47.156 295.246 45.528ZM276.524 59.07C276.746 56.924 277.264 55.222 278.152 54.112C279.484 52.336 281.26 51.448 283.48 51.448C285.404 51.448 286.958 52.04 288.142 53.224C289.326 54.408 290.066 56.332 290.288 59.07H276.524ZM332.468 47.6C331.062 46.12 329.508 45.01 327.732 44.27C325.956 43.53 323.958 43.16 321.812 43.16C317.372 43.16 313.672 44.788 310.786 47.97C307.9 51.152 306.42 55.814 306.42 61.882C306.42 67.284 307.752 71.872 310.342 75.72C312.932 79.494 316.78 81.418 321.738 81.418C324.18 81.418 326.474 80.9 328.472 79.864C329.952 79.05 331.654 77.496 333.504 75.202V80.604H346.602V30.062H332.468V47.6ZM330.766 69.06C329.582 70.466 328.102 71.132 326.326 71.132C324.624 71.132 323.218 70.466 322.108 69.06C320.998 67.654 320.406 65.508 320.406 62.474C320.406 59.292 320.924 56.998 322.034 55.666C323.144 54.334 324.476 53.668 326.104 53.668C327.954 53.668 329.508 54.408 330.692 55.814C331.876 57.22 332.542 59.366 332.542 62.252C332.542 65.36 331.95 67.654 330.766 69.06ZM374.5 45.158C374.278 44.936 373.834 44.714 373.316 44.492C374.648 44.196 375.61 43.678 376.202 43.012C376.794 42.346 377.09 41.532 377.09 40.57C377.09 39.386 376.72 38.424 375.906 37.684C375.092 36.944 373.834 36.574 372.058 36.574H365.768V50.634H369.246V45.084C369.394 45.084 369.542 45.01 369.69 45.01C370.134 45.01 370.578 45.306 371.096 45.824C371.54 46.342 372.428 47.97 373.76 50.634H377.904C376.424 47.97 375.684 46.638 375.61 46.564C375.24 45.972 374.87 45.454 374.5 45.158ZM372.872 42.05C372.428 42.346 371.762 42.568 370.726 42.568H369.246V39.09H370.874C371.836 39.09 372.502 39.238 372.872 39.608C373.242 39.904 373.464 40.348 373.464 40.866C373.538 41.31 373.316 41.754 372.872 42.05ZM383.084 37.018C381.9 34.946 380.346 33.392 378.274 32.208C376.276 31.024 374.056 30.432 371.688 30.432C369.32 30.432 367.174 31.024 365.176 32.208C363.178 33.392 361.55 35.02 360.366 37.018C359.182 39.09 358.59 41.236 358.59 43.604C358.59 45.972 359.182 48.118 360.366 50.19C361.55 52.188 363.104 53.816 365.176 55C367.174 56.184 369.394 56.776 371.688 56.776C374.056 56.776 376.202 56.184 378.274 55C380.272 53.816 381.9 52.262 383.084 50.19C384.268 48.192 384.86 45.972 384.86 43.604C384.86 41.236 384.268 39.09 383.084 37.018ZM379.162 51.078C377.09 53.15 374.574 54.186 371.688 54.186C368.802 54.186 366.286 53.15 364.214 51.078C362.142 49.006 361.106 46.49 361.106 43.604C361.106 40.644 362.142 38.202 364.214 36.13C366.286 34.058 368.802 33.022 371.688 33.022C374.574 33.022 377.09 34.058 379.162 36.13C381.234 38.202 382.27 40.718 382.27 43.604C382.27 46.564 381.234 49.006 379.162 51.078Z" fill="white"/>
</g>
<defs>
<filter id="filter0_d" x="-7" y="-12" width="430" height="134" filterUnits="userSpaceOnUse" color-interpolation-filters="sRGB">
<feFlood flood-opacity="0" result="BackgroundImageFix"/>
<feColorMatrix in="SourceAlpha" type="matrix" values="0 0 0 0 0 0 0 0 0 0 0 0 0 0 0 0 0 0 127 0"/>
<feOffset/>
<feGaussianBlur stdDeviation="15"/>
<feColorMatrix type="matrix" values="0 0 0 0 1 0 0 0 0 1 0 0 0 0 1 0 0 0 0.25 0"/>
<feBlend mode="normal" in2="BackgroundImageFix" result="effect1_dropShadow"/>
<feBlend mode="normal" in="SourceGraphic" in2="effect1_dropShadow" result="shape"/>
</filter>
</defs>
</svg>
