<svg width="370" height="74" viewBox="0 0 370 74" fill="none" xmlns="http://www.w3.org/2000/svg">
<path fill-rule="evenodd" clip-rule="evenodd" d="M52.54 30.044H40.404V12.358H25.53V30.044H7.918V44.918H25.53V62.53H40.404V44.918H58.164L52.54 30.044Z" fill="#00C2CB"/>
<path fill-rule="evenodd" clip-rule="evenodd" d="M91.242 12.062L80.068 48.396L68.746 12.062H52.466L71.484 62.53H88.356L107.078 12.062H91.242ZM136.086 27.528C133.052 25.974 128.908 25.16 123.728 25.16C117.29 25.16 112.258 26.936 108.558 30.488C104.932 34.04 103.082 38.628 103.082 44.4C103.082 48.396 103.97 51.948 105.82 54.908C107.67 57.868 109.964 60.088 112.702 61.42C115.44 62.752 119.288 63.492 124.098 63.492C129.648 63.492 133.94 62.678 136.9 61.124C139.86 59.496 142.45 56.906 144.522 53.206L130.758 51.8C129.87 52.91 129.056 53.65 128.316 54.094C127.058 54.76 125.8 55.13 124.394 55.13C122.248 55.13 120.472 54.316 119.066 52.762C118.104 51.652 117.512 49.95 117.216 47.73H145.262V46.176C145.262 41.366 144.448 37.444 142.894 34.41C141.414 31.45 139.12 29.156 136.086 27.528ZM117.364 41.07C117.586 38.924 118.104 37.222 118.992 36.112C120.324 34.336 122.1 33.448 124.32 33.448C126.244 33.448 127.798 34.04 128.982 35.224C130.166 36.408 130.906 38.332 131.128 41.07H117.364ZM166.13 26.64C164.798 27.602 163.466 29.378 162.208 31.968V25.974H149.11V62.53H163.17V50.32C163.17 44.474 163.91 40.478 165.316 38.332C166.352 36.852 167.758 36.038 169.608 36.038C170.57 36.038 171.902 36.408 173.53 37.074L177.896 27.084C175.454 25.826 173.16 25.16 171.088 25.16C169.09 25.16 167.462 25.678 166.13 26.64ZM206.534 42.772L198.616 12.062H178.118V62.53H190.92V24.05L200.762 62.53H212.306L222.148 24.05V62.53H234.876V12.062H214.378L206.534 42.772ZM272.246 27.528C269.212 25.974 265.068 25.16 259.888 25.16C253.45 25.16 248.418 26.936 244.718 30.488C241.092 34.04 239.242 38.628 239.242 44.4C239.242 48.396 240.13 51.948 241.98 54.908C243.83 57.868 246.124 60.088 248.862 61.42C251.6 62.752 255.448 63.492 260.258 63.492C265.808 63.492 270.1 62.678 273.06 61.124C276.02 59.496 278.61 56.906 280.682 53.206L266.992 51.8C266.104 52.91 265.29 53.65 264.55 54.094C263.292 54.76 262.034 55.13 260.628 55.13C258.482 55.13 256.706 54.316 255.3 52.762C254.338 51.652 253.746 49.95 253.45 47.73H281.496V46.176C281.496 41.366 280.682 37.444 279.128 34.41C277.574 31.45 275.28 29.156 272.246 27.528ZM253.524 41.07C253.746 38.924 254.264 37.222 255.152 36.112C256.484 34.336 258.26 33.448 260.48 33.448C262.404 33.448 263.958 34.04 265.142 35.224C266.326 36.408 267.066 38.332 267.288 41.07H253.524ZM309.468 29.6C308.062 28.12 306.508 27.01 304.732 26.27C302.956 25.53 300.958 25.16 298.812 25.16C294.372 25.16 290.672 26.788 287.786 29.97C284.9 33.152 283.42 37.814 283.42 43.882C283.42 49.284 284.752 53.872 287.342 57.72C289.932 61.494 293.78 63.418 298.738 63.418C301.18 63.418 303.474 62.9 305.472 61.864C306.952 61.05 308.654 59.496 310.504 57.202V62.604H323.602V12.062H309.468V29.6ZM307.766 51.06C306.582 52.466 305.102 53.132 303.326 53.132C301.624 53.132 300.218 52.466 299.108 51.06C297.998 49.654 297.406 47.508 297.406 44.474C297.406 41.292 297.924 38.998 299.034 37.666C300.144 36.334 301.476 35.668 303.104 35.668C304.954 35.668 306.508 36.408 307.692 37.814C308.876 39.22 309.542 41.366 309.542 44.252C309.542 47.36 308.95 49.654 307.766 51.06ZM351.5 27.158C351.278 26.936 350.834 26.714 350.316 26.492C351.648 26.196 352.61 25.678 353.202 25.012C353.794 24.346 354.09 23.532 354.09 22.57C354.09 21.386 353.72 20.424 352.906 19.684C352.092 18.944 350.834 18.574 349.058 18.574H342.768V32.634H346.246V27.084C346.394 27.084 346.542 27.01 346.69 27.01C347.134 27.01 347.578 27.306 348.096 27.824C348.54 28.342 349.428 29.97 350.76 32.634H354.904C353.424 29.97 352.684 28.638 352.61 28.564C352.24 27.972 351.87 27.454 351.5 27.158ZM349.872 24.05C349.428 24.346 348.762 24.568 347.726 24.568H346.246V21.09H347.874C348.836 21.09 349.502 21.238 349.872 21.608C350.242 21.904 350.464 22.348 350.464 22.866C350.538 23.31 350.316 23.754 349.872 24.05ZM360.084 19.018C358.9 16.946 357.346 15.392 355.274 14.208C353.276 13.024 351.056 12.432 348.688 12.432C346.32 12.432 344.174 13.024 342.176 14.208C340.178 15.392 338.55 17.02 337.366 19.018C336.182 21.09 335.59 23.236 335.59 25.604C335.59 27.972 336.182 30.118 337.366 32.19C338.55 34.188 340.104 35.816 342.176 37C344.174 38.184 346.394 38.776 348.688 38.776C351.056 38.776 353.202 38.184 355.274 37C357.272 35.816 358.9 34.262 360.084 32.19C361.268 30.192 361.86 27.972 361.86 25.604C361.86 23.236 361.268 21.09 360.084 19.018ZM356.162 33.078C354.09 35.15 351.574 36.186 348.688 36.186C345.802 36.186 343.286 35.15 341.214 33.078C339.142 31.006 338.106 28.49 338.106 25.604C338.106 22.644 339.142 20.202 341.214 18.13C343.286 16.058 345.802 15.022 348.688 15.022C351.574 15.022 354.09 16.058 356.162 18.13C358.234 20.202 359.27 22.718 359.27 25.604C359.27 28.564 358.234 31.006 356.162 33.078Z" fill="white"/>
</svg>
