<svg width="94" height="94" viewBox="0 0 94 94" fill="none" xmlns="http://www.w3.org/2000/svg">
<path d="M6.68494 87.0555C7.37415 84.5968 7.98885 82.3056 8.6408 80.0145C9.60941 76.5871 10.5966 73.1597 11.5094 69.695C11.6398 69.1735 11.5466 68.447 11.2672 67.9813C-3.48549 42.816 11.0251 10.9636 39.6923 5.6176C62.6037 1.35198 84.7514 17.1292 88.2905 40.2641C91.8297 63.3991 75.8103 84.9321 52.7127 87.9497C43.2314 89.1977 34.309 87.4095 26.0386 82.585C25.219 82.1007 24.5484 82.0821 23.6915 82.3242C18.4759 83.8144 13.2603 85.2673 8.04473 86.7203C7.67218 86.8507 7.28101 86.9065 6.68494 87.0555ZM14.4525 79.3439C17.9916 78.3567 21.2514 77.4812 24.4553 76.5126C25.4611 76.2145 26.2248 76.3077 27.1189 76.9037C34.0482 81.486 41.6854 83.4605 49.9745 82.8086C68.3222 81.3556 82.6651 66.4539 83.3916 48.1248C84.2671 25.8281 64.9321 7.98325 42.803 10.6469C17.0789 13.739 2.71736 42.1455 15.6819 64.5726C17.2093 67.2176 17.5446 69.3784 16.5201 72.1166C15.6632 74.3518 15.1789 76.7361 14.4525 79.3439Z" fill="white"/>
<path d="M60.0331 67.05C56.2704 66.9755 53.3832 65.7088 50.5333 64.2C40.6422 58.9658 33.3963 51.2355 28.5532 41.1955C27.2307 38.4759 26.3552 35.6073 26.914 32.5525C27.4356 29.8143 29.261 27.9329 31.6081 26.629C33.2845 25.6977 35.8737 26.2379 37.1776 27.7653C38.5001 29.33 39.6736 31.0437 40.6609 32.8132C41.6295 34.5456 41.2569 35.8308 39.8413 37.2279C39.6364 37.4328 39.4128 37.6377 39.2079 37.8426C37.0658 39.9475 36.8796 40.7298 38.5746 43.2817C41.7412 48.0503 45.7647 52.0179 50.5146 55.2404C51.0735 55.6129 51.7068 55.8737 52.3215 56.1158C53.3087 56.4884 54.2028 56.3394 54.9665 55.5384C55.544 54.9237 56.1587 54.3649 56.7361 53.7502C57.7792 52.6326 59.0459 52.3904 60.4243 52.912C62.7527 53.7688 64.7644 55.1472 66.4036 56.9913C68.0055 58.7795 67.9683 61.6854 66.3477 63.4736C64.5223 65.5039 62.5478 67.2549 60.0331 67.05Z" fill="white"/>
</svg>
