<svg width="104" height="104" viewBox="0 0 104 104" fill="none" xmlns="http://www.w3.org/2000/svg">
<path d="M51.521 87.2613H51.4797C49.6003 87.22 47.7004 87.1993 45.8004 87.1787C37.519 87.0547 28.9485 86.9308 20.378 86.1048C18.5606 85.9395 16.6193 85.6917 14.6987 85.1341C9.37053 83.6059 5.85971 79.9505 4.53799 74.5191C3.42279 69.9963 3.11302 65.3083 2.9065 61.2812C2.3489 50.5836 2.65867 41.2489 3.85648 32.7404C4.31082 29.5187 5.03364 25.8426 7.90425 22.8275C10.114 20.5145 12.7368 19.0275 15.69 18.4493C21.1421 17.396 26.7387 17.1895 31.6745 17.0036C48.8982 16.3634 64.3458 16.4874 78.864 17.3547L79.5662 17.396C82.9737 17.6026 86.5052 17.8091 89.9747 18.9449C94.3323 20.3699 97.4094 23.447 98.8757 27.8252C100.115 31.5219 100.466 35.2599 100.755 39.4109C101.581 51.2444 101.333 61.6117 99.9909 71.0909C99.5159 74.4778 98.6898 78.0092 96.0051 80.8798C93.7747 83.2548 91.2345 84.7004 88.24 85.32C83.6346 86.2493 78.9673 86.4765 74.4652 86.683L73.7217 86.7243C67.2164 87.0341 60.7936 87.1167 53.9992 87.1787L51.521 87.2613ZM52.5742 21.9601C45.945 21.9601 39.0472 22.084 31.8604 22.3525C27.1311 22.5383 21.7616 22.7242 16.7019 23.6948C14.8433 24.0459 13.2324 24.9753 11.7661 26.5242C10.1759 28.197 9.57705 30.4274 9.14336 33.4838C7.98685 41.6413 7.69773 50.6455 8.23468 60.9921C8.44119 64.9366 8.73032 69.1496 9.72161 73.2387C10.589 76.7701 12.6955 78.9799 16.165 79.9712C17.6726 80.4048 19.3247 80.5907 20.8943 80.7559C29.2376 81.5613 37.7049 81.6853 45.883 81.8092C47.783 81.8298 49.6623 81.8711 51.5416 81.8918L53.8959 81.8711C60.6491 81.7885 67.0305 81.7266 73.4326 81.4168L74.176 81.3755C78.6782 81.169 82.9324 80.9624 87.1454 80.1157C89.0454 79.7233 90.6149 78.8147 92.0812 77.2658C93.6714 75.5723 94.2496 73.3626 94.6833 70.3887C95.9638 61.2812 96.2116 51.2857 95.4062 39.8239C95.1377 35.9207 94.8486 32.6784 93.7953 29.56C92.866 26.772 91.0693 24.9546 88.3019 24.0666C85.4726 23.1372 82.4574 22.972 79.2358 22.7655L78.5336 22.7242C70.2315 22.2079 61.6404 21.9601 52.5742 21.9601ZM39.9353 70.5333V33.3186L72.1728 51.9259L39.9353 70.5333ZM45.3048 42.5913V61.2606L61.4752 51.9259L45.3048 42.5913Z" fill="white"/>
</svg>
